<?xml version="1.0" encoding="utf-8"?>
<!-- Generator: Adobe Illustrator 21.0.0, SVG Export Plug-In . SVG Version: 6.00 Build 0)  -->
<?xml-stylesheet type="text/css" href="svg-styles.css"?>

<svg version="1.1" id="Layer_1" xmlns="http://www.w3.org/2000/svg" xmlns:xlink="http://www.w3.org/1999/xlink" x="0px" y="0px"
	 viewBox="0 0 435.1 553.5" style="enable-background:new 0 0 435.1 553.5;" xml:space="preserve">
<style type="text/css">
	.st0{opacity:0.5;}
	.st1{fill:none;stroke:#D9D9D9;stroke-width:2;stroke-linejoin:round;stroke-miterlimit:10;}
	.st2{fill:none;}
	.st3{fill:#FFFFFF;}
	.st4{font-family:'Poppins-Medium';}
	.st5{font-size:9px;}
	.st6{fill:#875985;}
	.st7{font-size:10px;}
	.st8{fill:#FFFFFF;stroke:#FFFFFF;stroke-width:17;stroke-miterlimit:10;}
	.st9{fill:#8C8C8C;}
</style>
<g id="hor-bar" class="st0">
	<line class="st1" x1="12.1" y1="481" x2="420.6" y2="481"/>
</g>
<g id="_x31_0-80-distance">
	<rect x="31.5" y="489.8" class="st2" width="12.3" height="11.8"/>
	<text transform="matrix(1 0 0 1 33.1623 496.4631)" class="st3 st4 st5">10</text>
	<rect x="81.5" y="489.8" class="st2" width="12.3" height="11.8"/>
	<text transform="matrix(1 0 0 1 82.1408 496.4631)" class="st3 st4 st5">20</text>
	<rect x="132.5" y="489.8" class="st2" width="12.3" height="11.8"/>
	<text transform="matrix(1 0 0 1 133.0642 496.4631)" class="st3 st4 st5">30</text>
	<rect x="183.5" y="489.8" class="st2" width="12.3" height="11.8"/>
	<text transform="matrix(1 0 0 1 183.8254 496.4631)" class="st3 st4 st5">40</text>
	<rect x="235.5" y="489.8" class="st2" width="12.3" height="11.8"/>
	<text transform="matrix(1 0 0 1 235.8615 496.4631)" class="st3 st4 st5">50</text>
	<rect x="286.5" y="489.8" class="st2" width="12.3" height="11.8"/>
	<text transform="matrix(1 0 0 1 286.8478 496.4631)" class="st3 st4 st5">60</text>
	<rect x="337.5" y="489.8" class="st2" width="12.3" height="11.8"/>
	<text transform="matrix(1 0 0 1 338.217 496.4631)" class="st3 st4 st5">70</text>
	<rect x="387.5" y="489.8" class="st2" width="12.3" height="11.8"/>
	<text transform="matrix(1 0 0 1 387.8659 496.4631)" class="st3 st4 st5">80</text>
</g>
<g id="legend">
	<path class="st6" d="M62.2,514h1.2c0.7,0,1.2,0.5,1.2,1.2s-0.5,1.2-1.2,1.2h-1.2c-0.7,0-1.2-0.5-1.2-1.2S61.6,514,62.2,514z
		 M52.6,514h4.8c0.7,0,1.2,0.5,1.2,1.2s-0.5,1.2-1.2,1.2h-4.8c-0.7,0-1.2-0.5-1.2-1.2S51.9,514,52.6,514z M42.9,514h4.8
		c0.7,0,1.2,0.5,1.2,1.2s-0.5,1.2-1.2,1.2h-4.8c-0.7,0-1.2-0.5-1.2-1.2S42.2,514,42.9,514z M33.2,514H38c0.7,0,1.2,0.5,1.2,1.2
		s-0.5,1.2-1.2,1.2h-4.8c-0.7,0-1.2-0.5-1.2-1.2S32.6,514,33.2,514z"/>
	<g class="st0">
		<rect x="221.8" y="513" class="st3" width="30.2" height="6"/>
	</g>
	<rect x="48.6" y="510.6" class="st2" width="177.3" height="39.9"/>
	<text transform="matrix(1 0 0 1 71.1169 517.9837)" class="st3 st4 st7">km afgelegd in duizenden</text>
	<rect x="241.6" y="510.6" class="st2" width="177.3" height="39.9"/>
	<text transform="matrix(1 0 0 1 258.4919 517.9837)" class="st3 st4 st7">miles afgelegd in duizenden</text>
</g>
<g id="miles-bars">
	<path class="st8" d="M391,71.9h8.5v401.2H391V71.9z M339,121.7h9.7V473H339V121.7z M288.2,171.6h9.7v301.5h-9.7V171.6z
		 M237.5,229.7h9.7v243.5h-9.7V229.7z M186.7,277.5h8.5v195.7h-8.5V277.5z M134.8,329.4h9.7v143.8h-9.7V329.4z M84,383.2h9.7v89.9
		H84V383.2z M33.2,437.2h9.7v35.9h-9.7V437.2z"/>
</g>
<g id="km-line">
	<path class="st6" d="M391.6,417l4.4-0.7c0.7-0.1,1.1-0.7,1-1.4c-0.1-0.7-0.7-1.1-1.4-1l-4.4,0.7c-0.7,0.1-1.1,0.7-1,1.4
		C390.3,416.7,390.9,417.1,391.6,417z M382,418.5l4.8-0.8c0.7-0.1,1.1-0.7,1-1.4c-0.1-0.7-0.7-1.1-1.4-1l-4.8,0.8
		c-0.7,0.1-1.1,0.7-1,1.4C380.7,418.2,381.4,418.6,382,418.5z M372.5,420.1l4.8-0.8c0.7-0.1,1.1-0.7,1-1.4c-0.1-0.7-0.7-1.1-1.4-1
		l-4.8,0.8c-0.7,0.1-1.1,0.7-1,1.4C371.2,419.7,371.8,420.2,372.5,420.1z M362.9,421.6l4.8-0.8c0.7-0.1,1.1-0.7,1-1.4
		c-0.1-0.7-0.7-1.1-1.4-1l-4.8,0.8c-0.7,0.1-1.1,0.7-1,1.4C361.6,421.2,362.3,421.7,362.9,421.6z M353.4,423.1l4.8-0.8
		c0.7-0.1,1.1-0.7,1-1.4c-0.1-0.7-0.7-1.1-1.4-1l-4.8,0.8c-0.7,0.1-1.1,0.7-1,1.4C352.1,422.7,352.7,423.2,353.4,423.1z
		 M343.8,424.6l4.8-0.8c0.7-0.1,1.1-0.7,1-1.4c-0.1-0.7-0.7-1.1-1.4-1l-4.8,0.8c-0.7,0.1-1.1,0.7-1,1.4S343.2,424.7,343.8,424.6z
		 M334.3,426.1l4.8-0.8c0.7-0.1,1.1-0.7,1-1.4c-0.1-0.7-0.7-1.1-1.4-1l-4.8,0.8c-0.7,0.1-1.1,0.7-1,1.4S333.6,426.2,334.3,426.1z
		 M324.7,427.6l4.8-0.8c0.7-0.1,1.1-0.7,1-1.4c-0.1-0.7-0.7-1.1-1.4-1l-4.8,0.8c-0.7,0.1-1.1,0.7-1,1.4
		C323.4,427.3,324.1,427.7,324.7,427.6z M315.2,429.2l4.8-0.8c0.7-0.1,1.1-0.7,1-1.4c-0.1-0.7-0.7-1.1-1.4-1l-4.8,0.8
		c-0.7,0.1-1.1,0.7-1,1.4C313.9,428.8,314.5,429.3,315.2,429.2z M305.6,430.7l4.8-0.8c0.7-0.1,1.1-0.7,1-1.4c-0.1-0.7-0.7-1.1-1.4-1
		l-4.8,0.8c-0.7,0.1-1.1,0.7-1,1.4C304.3,430.3,305,430.8,305.6,430.7z M296.1,432.2l4.8-0.8c0.7-0.1,1.1-0.7,1-1.4
		c-0.1-0.7-0.7-1.1-1.4-1l-4.8,0.8c-0.7,0.1-1.1,0.7-1,1.4C294.8,431.8,295.4,432.3,296.1,432.2z M286.5,433.7l4.8-0.8
		c0.7-0.1,1.1-0.7,1-1.4c-0.1-0.7-0.7-1.1-1.4-1l-4.8,0.8c-0.7,0.1-1.1,0.7-1,1.4S285.9,433.8,286.5,433.7z M277,435.2l4.8-0.8
		c0.7-0.1,1.1-0.7,1-1.4c-0.1-0.7-0.7-1.1-1.4-1l-4.8,0.8c-0.7,0.1-1.1,0.7-1,1.4S276.3,435.3,277,435.2z M267.4,436.7l4.8-0.8
		c0.7-0.1,1.1-0.7,1-1.4c-0.1-0.7-0.7-1.1-1.4-1l-4.8,0.8c-0.7,0.1-1.1,0.7-1,1.4C266.2,436.4,266.8,436.8,267.4,436.7z
		 M257.9,438.2l4.8-0.8c0.7-0.1,1.1-0.7,1-1.4c-0.1-0.7-0.7-1.1-1.4-1l-4.8,0.8c-0.7,0.1-1.1,0.7-1,1.4S257.2,438.4,257.9,438.2z
		 M248.3,439.8l4.8-0.8c0.7-0.1,1.1-0.7,1-1.4c-0.1-0.7-0.7-1.1-1.4-1l-4.8,0.8c-0.7,0.1-1.1,0.7-1,1.4
		C247.1,439.4,247.7,439.9,248.3,439.8z M238.8,441.3l4.8-0.8c0.7-0.1,1.1-0.7,1-1.4c-0.1-0.7-0.7-1.1-1.4-1l-4.8,0.8
		c-0.7,0.1-1.1,0.7-1,1.4C237.5,440.9,238.1,441.4,238.8,441.3z M229.2,442.8l4.8-0.8c0.7-0.1,1.1-0.7,1-1.4c-0.1-0.7-0.7-1.1-1.4-1
		l-4.8,0.8c-0.7,0.1-1.1,0.7-1,1.4C228,442.5,228.6,442.9,229.2,442.8z M219.7,444.3l4.8-0.8c0.7-0.1,1.1-0.7,1-1.4
		c-0.1-0.7-0.7-1.1-1.4-1l-4.8,0.8c-0.7,0.1-1.1,0.7-1,1.4C218.4,444,219,444.4,219.7,444.3z M210.1,445.8l4.8-0.8
		c0.7-0.1,1.1-0.7,1-1.4c-0.1-0.7-0.7-1.1-1.4-1l-4.8,0.8c-0.7,0.1-1.1,0.7-1,1.4C208.9,445.5,209.5,445.9,210.1,445.8z
		 M200.6,447.3l4.8-0.8c0.7-0.1,1.1-0.7,1-1.4c-0.1-0.7-0.7-1.1-1.4-1l-4.8,0.8c-0.7,0.1-1.1,0.7-1,1.4
		C199.3,447,199.9,447.5,200.6,447.3z M191,448.9l4.8-0.8c0.7-0.1,1.1-0.7,1-1.4c-0.1-0.7-0.7-1.1-1.4-1l-4.8,0.8
		c-0.7,0.1-1.1,0.7-1,1.4C189.8,448.5,190.4,449,191,448.9z M181.5,450.4l4.8-0.8c0.7-0.1,1.1-0.7,1-1.4c-0.1-0.7-0.7-1.1-1.4-1
		l-4.8,0.8c-0.7,0.1-1.1,0.7-1,1.4C180.2,450,180.8,450.5,181.5,450.4z M171.9,451.9l4.8-0.8c0.7-0.1,1.1-0.7,1-1.4
		c-0.1-0.7-0.7-1.1-1.4-1l-4.8,0.8c-0.7,0.1-1.1,0.7-1,1.4C170.7,451.6,171.3,452,171.9,451.9z M162.4,453.4l4.8-0.8
		c0.7-0.1,1.1-0.7,1-1.4c-0.1-0.7-0.7-1.1-1.4-1L162,451c-0.7,0.1-1.1,0.7-1,1.4C161.1,453.1,161.7,453.5,162.4,453.4z M152.8,454.9
		l4.8-0.8c0.7-0.1,1.1-0.7,1-1.4c-0.1-0.7-0.7-1.1-1.4-1l-4.8,0.8c-0.7,0.1-1.1,0.7-1,1.4C151.6,454.6,152.2,455,152.8,454.9z
		 M143.3,456.4l4.8-0.8c0.7-0.1,1.1-0.7,1-1.4c-0.1-0.7-0.7-1.1-1.4-1l-4.8,0.8c-0.7,0.1-1.1,0.7-1,1.4S142.6,456.5,143.3,456.4z
		 M133.7,458l4.8-0.8c0.7-0.1,1.1-0.7,1-1.4c-0.1-0.7-0.7-1.1-1.4-1l-4.8,0.8c-0.7,0.1-1.1,0.7-1,1.4
		C132.5,457.6,133.1,458.1,133.7,458z M124.2,459.5l4.8-0.8c0.7-0.1,1.1-0.7,1-1.4c-0.1-0.7-0.7-1.1-1.4-1l-4.8,0.8
		c-0.7,0.1-1.1,0.7-1,1.4C122.9,459.1,123.5,459.6,124.2,459.5z M114.6,461l4.8-0.8c0.7-0.1,1.1-0.7,1-1.4c-0.1-0.7-0.7-1.1-1.4-1
		l-4.8,0.8c-0.7,0.1-1.1,0.7-1,1.4C113.4,460.6,114,461.1,114.6,461z M105.1,462.5l4.8-0.8c0.7-0.1,1.1-0.7,1-1.4
		c-0.1-0.7-0.7-1.1-1.4-1l-4.8,0.8c-0.7,0.1-1.1,0.7-1,1.4S104.4,462.6,105.1,462.5z M95.5,464l4.8-0.8c0.7-0.1,1.1-0.7,1-1.4
		c-0.1-0.7-0.7-1.1-1.4-1l-4.8,0.8c-0.7,0.1-1.1,0.7-1,1.4C94.3,463.7,94.9,464.1,95.5,464z M86,465.5l4.8-0.8
		c0.7-0.1,1.1-0.7,1-1.4c-0.1-0.7-0.7-1.1-1.4-1l-4.8,0.8c-0.7,0.1-1.1,0.7-1,1.4C84.7,465.2,85.3,465.6,86,465.5z M76.4,467.1
		l4.8-0.8c0.7-0.1,1.1-0.7,1-1.4c-0.1-0.7-0.7-1.1-1.4-1l-4.8,0.8c-0.7,0.1-1.1,0.7-1,1.4C75.2,466.7,75.8,467.2,76.4,467.1z
		 M66.9,468.6l4.8-0.8c0.7-0.1,1.1-0.7,1-1.4c-0.1-0.7-0.7-1.1-1.4-1l-4.8,0.8c-0.7,0.1-1.1,0.7-1,1.4
		C65.6,468.2,66.2,468.7,66.9,468.6z M57.4,470.1l4.8-0.8c0.7-0.1,1.1-0.7,1-1.4c-0.1-0.7-0.7-1.1-1.4-1l-4.8,0.8
		c-0.7,0.1-1.1,0.7-1,1.4C56.1,469.7,56.7,470.2,57.4,470.1z M47.8,471.6l4.8-0.8c0.7-0.1,1.1-0.7,1-1.4c-0.1-0.7-0.7-1.1-1.4-1
		l-4.8,0.8c-0.7,0.1-1.1,0.7-1,1.4C46.5,471.3,47.1,471.7,47.8,471.6z M38.3,473.1l4.8-0.8c0.7-0.1,1.1-0.7,1-1.4
		c-0.1-0.7-0.7-1.1-1.4-1l-4.8,0.8c-0.7,0.1-1.1,0.7-1,1.4C37,472.8,37.6,473.2,38.3,473.1z"/>
</g>
<g id="km-getallen">
	<g>
		<path class="st9" d="M39.8,467.3h-0.7c-0.1-0.1-0.3-0.2-0.5-0.4c-0.2-0.2-0.4-0.3-0.5-0.4s-0.3-0.2-0.5-0.4
			c-0.2-0.1-0.4-0.3-0.5-0.3c-0.1-0.1-0.3-0.2-0.5-0.3c-0.3-0.2-0.7-0.2-1-0.2c-0.7,0-1.1,0.2-1.1,0.7c0,0.2,0.1,0.4,0.3,0.5
			s0.5,0.2,0.9,0.2v0.6c-0.7,0-1.1-0.1-1.5-0.4c-0.3-0.3-0.5-0.6-0.5-1s0.2-0.7,0.5-1c0.3-0.2,0.8-0.4,1.3-0.4
			c0.4,0,0.8,0.1,1.2,0.2c0.2,0.1,0.4,0.2,0.5,0.2c0.2,0.1,0.3,0.2,0.5,0.3c0.2,0.1,0.3,0.2,0.5,0.3c0.1,0.1,0.3,0.2,0.5,0.3
			c0.2,0.2,0.3,0.3,0.4,0.3v-1.9h0.8L39.8,467.3L39.8,467.3z"/>
		<path class="st9" d="M35.2,463.8c-0.5,0-0.9-0.1-1.2-0.4c-0.3-0.2-0.5-0.6-0.5-1s0.2-0.8,0.5-1s0.7-0.4,1.2-0.4
			c0.3,0,0.6,0.1,0.8,0.2s0.4,0.3,0.6,0.4c0.1-0.2,0.3-0.4,0.6-0.5s0.6-0.2,1-0.2c0.6,0,1,0.1,1.4,0.4c0.3,0.3,0.5,0.6,0.5,1.1
			c0,0.4-0.2,0.8-0.5,1.1c-0.3,0.3-0.8,0.4-1.4,0.4c-0.4,0-0.7-0.1-1-0.2s-0.5-0.3-0.6-0.5C36.3,463.6,35.8,463.8,35.2,463.8z
			 M38.1,461.5c-0.3,0-0.6,0.1-0.8,0.2c-0.2,0.2-0.3,0.4-0.3,0.6c0,0.3,0.1,0.5,0.3,0.6c0.2,0.2,0.5,0.2,0.8,0.2
			c0.4,0,0.6-0.1,0.8-0.2c0.2-0.2,0.3-0.4,0.3-0.6s-0.1-0.5-0.3-0.6C38.7,461.6,38.5,461.5,38.1,461.5z M35.3,461.6
			c-0.3,0-0.5,0.1-0.7,0.2s-0.3,0.3-0.3,0.6s0.1,0.4,0.3,0.6c0.2,0.1,0.4,0.2,0.7,0.2s0.5-0.1,0.7-0.2s0.3-0.3,0.3-0.5
			s-0.1-0.4-0.3-0.5C35.8,461.7,35.6,461.6,35.3,461.6z"/>
		<path class="st9" d="M39.9,459.7h-5.2v0.5h-0.9V459h6.1C39.9,459,39.9,459.7,39.9,459.7z"/>
		<path class="st9" d="M39.8,458.2h-0.7c-0.1-0.1-0.3-0.2-0.5-0.4c-0.2-0.2-0.4-0.3-0.5-0.4s-0.3-0.2-0.5-0.4
			c-0.2-0.1-0.4-0.3-0.5-0.3c-0.1-0.1-0.3-0.2-0.5-0.3c-0.3-0.2-0.7-0.2-1-0.2c-0.7,0-1.1,0.2-1.1,0.7c0,0.2,0.1,0.4,0.3,0.5
			s0.5,0.2,0.9,0.2v0.6c-0.7,0-1.1-0.1-1.5-0.4c-0.3-0.3-0.5-0.6-0.5-1s0.2-0.7,0.5-1c0.3-0.2,0.8-0.4,1.3-0.4
			c0.4,0,0.8,0.1,1.2,0.2c0.2,0.1,0.4,0.2,0.5,0.2c0.2,0.1,0.3,0.2,0.5,0.3c0.2,0.1,0.3,0.2,0.5,0.3c0.1,0.1,0.3,0.2,0.5,0.3
			c0.2,0.1,0.3,0.3,0.4,0.3v-1.9h0.8L39.8,458.2L39.8,458.2z"/>
		<path class="st9" d="M33.7,454.6V452h0.9v2h1.7c-0.2-0.1-0.3-0.2-0.4-0.4c-0.1-0.2-0.2-0.4-0.2-0.6s0.1-0.4,0.2-0.6
			c0.1-0.2,0.3-0.3,0.5-0.4c0.4-0.2,0.9-0.3,1.4-0.3c0.7,0,1.2,0.1,1.6,0.4s0.6,0.6,0.6,1.1s-0.2,0.8-0.5,1.1
			c-0.3,0.3-0.7,0.4-1.2,0.5v-0.6c0.3,0,0.5-0.1,0.6-0.3c0.2-0.1,0.2-0.3,0.2-0.6c0-0.2-0.1-0.4-0.4-0.6s-0.6-0.2-1-0.2
			s-0.7,0.1-0.9,0.2s-0.3,0.3-0.3,0.6c0,0.2,0.1,0.4,0.2,0.5c0.1,0.1,0.3,0.2,0.6,0.3v0.6h-3.6C33.7,454.7,33.7,454.6,33.7,454.6z"
			/>
		<path class="st9" d="M85.1,456.6V454H86v2h1.7c-0.2-0.1-0.3-0.2-0.4-0.4c-0.1-0.2-0.2-0.4-0.2-0.6s0.1-0.4,0.2-0.6
			s0.3-0.3,0.5-0.4c0.4-0.2,0.9-0.3,1.4-0.3c0.7,0,1.2,0.1,1.6,0.4s0.6,0.6,0.6,1.1s-0.2,0.8-0.5,1.1c-0.3,0.3-0.7,0.4-1.2,0.5v-0.6
			c0.3,0,0.5-0.1,0.6-0.3c0.2-0.1,0.2-0.3,0.2-0.6s-0.1-0.4-0.4-0.6c-0.2-0.1-0.6-0.2-1-0.2s-0.7,0.1-0.9,0.2
			c-0.2,0.1-0.3,0.3-0.3,0.6c0,0.2,0.1,0.4,0.2,0.5s0.3,0.2,0.6,0.3v0.6h-3.6L85.1,456.6L85.1,456.6z"/>
		<path class="st9" d="M85.8,451.5c0,0.3,0.2,0.5,0.5,0.7s0.9,0.2,1.7,0.2c-0.3-0.1-0.4-0.2-0.6-0.4c-0.1-0.2-0.2-0.4-0.2-0.6
			c0-0.4,0.2-0.7,0.5-0.9c0.4-0.2,0.9-0.4,1.5-0.4s1.1,0.1,1.5,0.4c0.4,0.2,0.6,0.6,0.6,1c0,0.6-0.3,1-0.9,1.2
			c-0.3,0.1-0.6,0.2-1,0.2S88.6,453,88,453c-2.1,0-3.1-0.5-3.1-1.5c0-0.4,0.2-0.7,0.5-0.9c0.3-0.2,0.7-0.4,1.1-0.4v0.6
			C86,450.8,85.8,451.1,85.8,451.5z M89.3,450.6c-0.4,0-0.7,0.1-0.9,0.2c-0.2,0.1-0.3,0.3-0.3,0.6c0,0.3,0.1,0.5,0.3,0.6
			s0.5,0.2,0.9,0.2s0.7-0.1,0.9-0.2s0.3-0.4,0.3-0.6c0-0.3-0.1-0.5-0.3-0.6S89.7,450.6,89.3,450.6z"/>
		<path class="st9" d="M91.3,449.3h-0.7c-0.1-0.1-0.3-0.2-0.5-0.4c-0.2-0.2-0.4-0.3-0.5-0.4s-0.3-0.2-0.5-0.4
			c-0.2-0.1-0.4-0.3-0.5-0.3c-0.1-0.1-0.3-0.2-0.5-0.3c-0.3-0.2-0.7-0.2-1-0.2c-0.7,0-1.1,0.2-1.1,0.7c0,0.2,0.1,0.4,0.3,0.5
			c0.2,0.1,0.5,0.2,0.9,0.2v0.6c-0.7,0-1.1-0.1-1.5-0.4c-0.3-0.3-0.5-0.6-0.5-1s0.2-0.7,0.5-1c0.3-0.2,0.8-0.4,1.3-0.4
			c0.4,0,0.8,0.1,1.2,0.2c0.2,0.1,0.4,0.2,0.5,0.2c0.2,0.1,0.3,0.2,0.5,0.3c0.2,0.1,0.3,0.2,0.5,0.3c0.1,0.1,0.3,0.2,0.5,0.3
			c0.2,0.1,0.3,0.3,0.4,0.3v-1.9h0.8v3.1L91.3,449.3L91.3,449.3z"/>
		<path class="st9" d="M85.1,445.7v-2.6H86v2h1.7c-0.2-0.1-0.3-0.2-0.4-0.4c-0.1-0.2-0.2-0.4-0.2-0.6s0.1-0.4,0.2-0.6
			s0.3-0.3,0.5-0.4c0.4-0.2,0.9-0.3,1.4-0.3c0.7,0,1.2,0.1,1.6,0.4s0.6,0.6,0.6,1.1s-0.2,0.8-0.5,1.1c-0.3,0.3-0.7,0.4-1.2,0.5v-0.6
			c0.3,0,0.5-0.1,0.6-0.3c0.2-0.1,0.2-0.3,0.2-0.6c0-0.2-0.1-0.4-0.4-0.6c-0.2-0.1-0.6-0.2-1-0.2s-0.7,0.1-0.9,0.2
			c-0.2,0.1-0.3,0.3-0.3,0.6c0,0.2,0.1,0.4,0.2,0.5s0.3,0.2,0.6,0.3v0.6h-3.6L85.1,445.7L85.1,445.7z"/>
		<path class="st9" d="M85.3,441.4c-0.2-0.2-0.2-0.4-0.2-0.7c0-0.3,0.1-0.5,0.2-0.7c0.2-0.2,0.4-0.4,0.7-0.5c0.3-0.1,0.6-0.2,1-0.2
			s0.8-0.1,1.2-0.1c0.5,0,0.9,0,1.2,0.1c0.4,0,0.7,0.1,1,0.2s0.5,0.3,0.7,0.5s0.2,0.4,0.2,0.7c0,0.3-0.1,0.5-0.2,0.7
			c-0.2,0.2-0.4,0.4-0.7,0.5c-0.3,0.1-0.6,0.2-1,0.2s-0.8,0.1-1.2,0.1c-0.5,0-0.9,0-1.2-0.1c-0.4,0-0.7-0.1-1-0.2
			S85.5,441.6,85.3,441.4z M86,440.7c0,0.2,0.1,0.3,0.2,0.5c0.1,0.1,0.3,0.2,0.5,0.3c0.4,0.1,0.9,0.1,1.5,0.1s1.1,0,1.5-0.1
			c0.5-0.1,0.7-0.4,0.7-0.7c0-0.4-0.2-0.6-0.7-0.7c-0.4-0.1-0.9-0.1-1.5-0.1s-1.1,0-1.5,0.1C86.2,440,86,440.3,86,440.7z"/>
		<path class="st9" d="M138,446.1c-0.5,0-0.9-0.1-1.2-0.4c-0.3-0.2-0.5-0.6-0.5-1s0.2-0.8,0.5-1s0.7-0.4,1.2-0.4
			c0.3,0,0.6,0.1,0.8,0.2s0.4,0.3,0.6,0.4c0.1-0.2,0.3-0.4,0.6-0.5s0.6-0.2,1-0.2c0.6,0,1,0.1,1.4,0.4c0.3,0.3,0.5,0.6,0.5,1.1
			c0,0.4-0.2,0.8-0.5,1.1c-0.3,0.3-0.8,0.4-1.4,0.4c-0.4,0-0.7-0.1-1-0.2s-0.5-0.3-0.6-0.5C139.1,445.9,138.6,446.1,138,446.1z
			 M140.9,443.9c-0.3,0-0.6,0.1-0.8,0.2c-0.2,0.2-0.3,0.4-0.3,0.6c0,0.3,0.1,0.5,0.3,0.6c0.2,0.2,0.5,0.2,0.8,0.2
			c0.4,0,0.6-0.1,0.8-0.2c0.2-0.2,0.3-0.4,0.3-0.6c0-0.3-0.1-0.5-0.3-0.6C141.6,444,141.3,443.9,140.9,443.9z M138.1,444
			c-0.3,0-0.5,0.1-0.7,0.2s-0.3,0.3-0.3,0.6c0,0.2,0.1,0.4,0.3,0.6c0.2,0.1,0.4,0.2,0.7,0.2s0.5-0.1,0.7-0.2s0.3-0.3,0.3-0.5
			s-0.1-0.4-0.3-0.5C138.6,444,138.4,444,138.1,444z"/>
		<path class="st9" d="M142.7,440.5h-1.3v2.1h-0.7l-4.1-2v-0.8h4v-0.5h0.8v0.5h1.3V440.5z M140.6,440.5h-3l3,1.4V440.5z"/>
		<path class="st9" d="M136.8,438.3c-0.3-0.3-0.4-0.6-0.4-1s0.2-0.7,0.5-1c0.3-0.2,0.7-0.3,1.2-0.3c0.4,0,0.7,0.1,0.9,0.2
			c0.3,0.1,0.4,0.3,0.5,0.5l0,0c0.1-0.2,0.3-0.4,0.6-0.5s0.6-0.2,1.1-0.2s0.9,0.1,1.2,0.4c0.3,0.2,0.5,0.6,0.5,1s-0.2,0.8-0.5,1
			c-0.3,0.3-0.8,0.4-1.4,0.4v-0.6c0.3,0,0.6-0.1,0.7-0.2c0.2-0.1,0.3-0.3,0.3-0.6c0-0.2-0.1-0.4-0.3-0.6c-0.2-0.1-0.4-0.2-0.7-0.2
			c-0.4,0-0.7,0.1-0.9,0.3c-0.2,0.2-0.3,0.4-0.3,0.8v0.2H139v-0.2c0-0.6-0.3-1-0.9-1c-0.3,0-0.5,0.1-0.7,0.2s-0.2,0.3-0.2,0.5
			s0.1,0.4,0.2,0.5c0.2,0.1,0.4,0.2,0.6,0.2v0.6C137.5,438.7,137.1,438.6,136.8,438.3z"/>
		<path class="st9" d="M136.5,435.4v-2.8h0.7l5.5,1.6v0.7l-5.4-1.7v2.2L136.5,435.4L136.5,435.4z"/>
		<path class="st9" d="M136.5,431.8v-2.6h0.9v2h1.7c-0.2-0.1-0.3-0.2-0.4-0.4c-0.1-0.2-0.2-0.4-0.2-0.6s0.1-0.4,0.2-0.6
			c0.1-0.2,0.3-0.3,0.5-0.4c0.4-0.2,0.9-0.3,1.4-0.3c0.7,0,1.2,0.1,1.6,0.4c0.4,0.3,0.6,0.6,0.6,1.1s-0.2,0.8-0.5,1.1
			c-0.3,0.3-0.7,0.4-1.2,0.5v-0.6c0.3,0,0.5-0.1,0.6-0.3c0.2-0.1,0.2-0.3,0.2-0.6c0-0.2-0.1-0.4-0.4-0.6c-0.2-0.1-0.6-0.2-1-0.2
			s-0.7,0.1-0.9,0.2s-0.3,0.3-0.3,0.6c0,0.2,0.1,0.4,0.2,0.5c0.1,0.1,0.3,0.2,0.6,0.3v0.6h-3.6L136.5,431.8L136.5,431.8z"/>
		<path class="st9" d="M194.2,435.3H189v0.5h-0.9v-1.2h6.1L194.2,435.3L194.2,435.3z"/>
		<path class="st9" d="M194.2,433.2H189v0.5h-0.9v-1.2h6.1L194.2,433.2L194.2,433.2z"/>
		<path class="st9" d="M194.1,431.7h-0.7c-0.1-0.1-0.3-0.2-0.5-0.4c-0.2-0.2-0.4-0.3-0.5-0.4s-0.3-0.2-0.5-0.4
			c-0.2-0.1-0.4-0.3-0.5-0.3c-0.1-0.1-0.3-0.2-0.5-0.3c-0.3-0.2-0.7-0.2-1-0.2c-0.7,0-1.1,0.2-1.1,0.7c0,0.2,0.1,0.4,0.3,0.5
			s0.5,0.2,0.9,0.2v0.6c-0.7,0-1.1-0.1-1.5-0.4c-0.3-0.3-0.5-0.6-0.5-1s0.2-0.7,0.5-1c0.3-0.2,0.8-0.4,1.3-0.4
			c0.4,0,0.8,0.1,1.2,0.2c0.2,0.1,0.4,0.2,0.5,0.2c0.2,0.1,0.3,0.2,0.5,0.3c0.2,0.1,0.3,0.2,0.5,0.3c0.1,0.1,0.3,0.2,0.5,0.3
			c0.2,0.2,0.3,0.3,0.4,0.3v-1.9h0.8L194.1,431.7L194.1,431.7z"/>
		<path class="st9" d="M187.9,428.1v-2.6h0.9v2h1.7c-0.2-0.1-0.3-0.2-0.4-0.4c-0.1-0.2-0.2-0.4-0.2-0.6s0.1-0.4,0.2-0.6
			s0.3-0.3,0.5-0.4c0.4-0.2,0.9-0.3,1.4-0.3c0.7,0,1.2,0.1,1.6,0.4c0.4,0.3,0.6,0.6,0.6,1.1s-0.2,0.8-0.5,1.1
			c-0.3,0.3-0.7,0.4-1.2,0.5v-0.6c0.3,0,0.5-0.1,0.6-0.3c0.2-0.1,0.2-0.3,0.2-0.6s-0.1-0.4-0.4-0.6c-0.2-0.1-0.6-0.2-1-0.2
			s-0.7,0.1-0.9,0.2s-0.3,0.3-0.3,0.6c0,0.2,0.1,0.4,0.2,0.5c0.1,0.1,0.3,0.2,0.6,0.3v0.6h-3.6L187.9,428.1L187.9,428.1z"/>
		<path class="st9" d="M188.1,423.8c-0.2-0.2-0.2-0.4-0.2-0.7c0-0.3,0.1-0.5,0.2-0.7c0.2-0.2,0.4-0.4,0.7-0.5s0.6-0.2,1-0.2
			s0.8-0.1,1.2-0.1s0.9,0,1.2,0.1c0.4,0,0.7,0.1,1,0.2s0.5,0.3,0.7,0.5s0.2,0.4,0.2,0.7c0,0.3-0.1,0.5-0.2,0.7
			c-0.2,0.2-0.4,0.4-0.7,0.5s-0.6,0.2-1,0.2s-0.8,0.1-1.2,0.1s-0.9,0-1.2-0.1c-0.4,0-0.7-0.1-1-0.2
			C188.5,424.1,188.3,424,188.1,423.8z M188.8,423c0,0.2,0.1,0.3,0.2,0.5c0.1,0.1,0.3,0.2,0.5,0.3c0.4,0.1,0.9,0.1,1.5,0.1
			s1.1,0,1.5-0.1c0.5-0.1,0.7-0.4,0.7-0.7s-0.2-0.6-0.7-0.7c-0.4-0.1-0.9-0.1-1.5-0.1s-1.1,0-1.5,0.1
			C189,422.4,188.8,422.6,188.8,423z"/>
		<path class="st9" d="M188.1,420c-0.2-0.2-0.2-0.4-0.2-0.7c0-0.3,0.1-0.5,0.2-0.7c0.2-0.2,0.4-0.4,0.7-0.5s0.6-0.2,1-0.2
			s0.8-0.1,1.2-0.1s0.9,0,1.2,0.1c0.4,0,0.7,0.1,1,0.2s0.5,0.3,0.7,0.5s0.2,0.4,0.2,0.7c0,0.3-0.1,0.5-0.2,0.7
			c-0.2,0.2-0.4,0.4-0.7,0.5s-0.6,0.2-1,0.2s-0.8,0.1-1.2,0.1s-0.9,0-1.2-0.1c-0.4,0-0.7-0.1-1-0.2S188.3,420.2,188.1,420z
			 M188.8,419.3c0,0.2,0.1,0.3,0.2,0.5c0.1,0.1,0.3,0.2,0.5,0.3c0.4,0.1,0.9,0.1,1.5,0.1s1.1,0,1.5-0.1c0.5-0.1,0.7-0.4,0.7-0.7
			c0-0.4-0.2-0.6-0.7-0.7c-0.4-0.1-0.9-0.1-1.5-0.1s-1.1,0-1.5,0.1C189,418.7,188.8,418.9,188.8,419.3z"/>
		<path class="st9" d="M245.6,426.5h-5.2v0.5h-0.9v-1.2h6.1L245.6,426.5L245.6,426.5z"/>
		<path class="st9" d="M245.6,422.9h-1.3v2.1h-0.7l-4.1-2v-0.8h4v-0.5h0.8v0.5h1.3V422.9L245.6,422.9z M243.4,422.9h-3l3,1.4V422.9z
			"/>
		<path class="st9" d="M239.6,420.4c-0.2-0.2-0.2-0.4-0.2-0.7c0-0.3,0.1-0.5,0.2-0.7c0.2-0.2,0.4-0.4,0.7-0.5s0.6-0.2,1-0.2
			s0.8-0.1,1.2-0.1c0.5,0,0.9,0,1.2,0.1c0.4,0,0.7,0.1,1,0.2s0.5,0.3,0.7,0.5s0.2,0.4,0.2,0.7c0,0.3-0.1,0.5-0.2,0.7
			c-0.2,0.2-0.4,0.4-0.7,0.5s-0.6,0.2-1,0.2s-0.8,0.1-1.2,0.1c-0.5,0-0.9,0-1.2-0.1c-0.4,0-0.7-0.1-1-0.2
			C239.9,420.7,239.7,420.6,239.6,420.4z M240.2,419.6c0,0.2,0.1,0.3,0.2,0.5c0.1,0.1,0.3,0.2,0.5,0.3c0.4,0.1,0.9,0.1,1.5,0.1
			s1.1,0,1.5-0.1c0.5-0.1,0.7-0.4,0.7-0.7s-0.2-0.6-0.7-0.7c-0.4-0.1-0.9-0.1-1.5-0.1s-1.1,0-1.5,0.1
			C240.4,419,240.2,419.2,240.2,419.6z"/>
		<path class="st9" d="M240,415.8c0,0.3,0.2,0.5,0.5,0.7s0.9,0.2,1.7,0.2c-0.3-0.1-0.4-0.2-0.6-0.4c-0.1-0.2-0.2-0.4-0.2-0.6
			c0-0.4,0.2-0.7,0.5-0.9c0.4-0.2,0.9-0.4,1.5-0.4s1.1,0.1,1.5,0.4c0.4,0.2,0.6,0.6,0.6,1c0,0.6-0.3,1-0.9,1.2
			c-0.3,0.1-0.6,0.2-1,0.2s-0.8,0.1-1.4,0.1c-2.1,0-3.1-0.5-3.1-1.5c0-0.4,0.2-0.7,0.5-0.9c0.3-0.2,0.7-0.4,1.1-0.4v0.6
			C240.2,415.2,240,415.4,240,415.8z M243.5,415c-0.4,0-0.7,0.1-0.9,0.2s-0.3,0.3-0.3,0.6c0,0.3,0.1,0.5,0.3,0.6s0.5,0.2,0.9,0.2
			s0.7-0.1,0.9-0.2c0.2-0.2,0.3-0.4,0.3-0.6c0-0.3-0.1-0.5-0.3-0.6S243.9,415,243.5,415z"/>
		<path class="st9" d="M245.5,413.7h-0.7c-0.1-0.1-0.3-0.2-0.5-0.4c-0.2-0.2-0.4-0.3-0.5-0.4s-0.3-0.2-0.5-0.4
			c-0.2-0.1-0.4-0.3-0.5-0.3c-0.1-0.1-0.3-0.2-0.5-0.3c-0.3-0.2-0.7-0.2-1-0.2c-0.7,0-1.1,0.2-1.1,0.7c0,0.2,0.1,0.4,0.3,0.5
			s0.5,0.2,0.9,0.2v0.6c-0.7,0-1.1-0.1-1.5-0.4c-0.3-0.3-0.5-0.6-0.5-1s0.2-0.7,0.5-1c0.3-0.2,0.8-0.4,1.3-0.4
			c0.4,0,0.8,0.1,1.2,0.2c0.2,0.1,0.4,0.2,0.5,0.2c0.2,0.1,0.3,0.2,0.5,0.3c0.2,0.1,0.3,0.2,0.5,0.3s0.3,0.2,0.5,0.3
			c0.2,0.1,0.3,0.3,0.4,0.3v-1.9h0.8L245.5,413.7L245.5,413.7z"/>
		<path class="st9" d="M239.3,410.1v-2.6h0.9v2h1.7c-0.2-0.1-0.3-0.2-0.4-0.4c-0.1-0.2-0.2-0.4-0.2-0.6s0.1-0.4,0.2-0.6
			s0.3-0.3,0.5-0.4c0.4-0.2,0.9-0.3,1.4-0.3c0.7,0,1.2,0.1,1.6,0.4s0.6,0.6,0.6,1.1s-0.2,0.8-0.5,1.1c-0.3,0.3-0.7,0.4-1.2,0.5v-0.6
			c0.3,0,0.5-0.1,0.6-0.3c0.2-0.1,0.2-0.3,0.2-0.6c0-0.2-0.1-0.4-0.4-0.6c-0.2-0.1-0.6-0.2-1-0.2s-0.7,0.1-0.9,0.2s-0.3,0.3-0.3,0.6
			c0,0.2,0.1,0.4,0.2,0.5s0.3,0.2,0.6,0.3v0.6h-3.6L239.3,410.1L239.3,410.1z"/>
		<path class="st9" d="M297,416h-5.2v0.5h-0.9v-1.2h6.1V416z"/>
		<path class="st9" d="M291.4,412.8c0,0.3,0.2,0.5,0.5,0.7s0.9,0.2,1.7,0.2c-0.3-0.1-0.4-0.2-0.6-0.4c-0.1-0.2-0.2-0.4-0.2-0.6
			c0-0.4,0.2-0.7,0.5-0.9c0.4-0.2,0.9-0.4,1.5-0.4s1.1,0.1,1.5,0.4c0.4,0.2,0.6,0.6,0.6,1c0,0.6-0.3,1-0.9,1.2
			c-0.3,0.1-0.6,0.2-1,0.2s-0.8,0.1-1.4,0.1c-2.1,0-3.1-0.5-3.1-1.5c0-0.4,0.2-0.7,0.5-0.9c0.3-0.2,0.7-0.4,1.1-0.4v0.6
			C291.6,412.2,291.4,412.4,291.4,412.8z M294.9,412c-0.4,0-0.7,0.1-0.9,0.2c-0.2,0.1-0.3,0.3-0.3,0.6c0,0.3,0.1,0.5,0.3,0.6
			s0.5,0.2,0.9,0.2s0.7-0.1,0.9-0.2c0.2-0.2,0.3-0.4,0.3-0.6c0-0.3-0.1-0.5-0.3-0.6S295.3,412,294.9,412z"/>
		<path class="st9" d="M292.2,410.5c-0.5,0-0.9-0.1-1.2-0.4c-0.3-0.2-0.5-0.6-0.5-1s0.2-0.8,0.5-1s0.7-0.4,1.2-0.4
			c0.3,0,0.6,0.1,0.8,0.2c0.2,0.1,0.4,0.3,0.6,0.4c0.1-0.2,0.3-0.4,0.6-0.5s0.6-0.2,1-0.2c0.6,0,1,0.1,1.4,0.4
			c0.3,0.3,0.5,0.6,0.5,1.1c0,0.4-0.2,0.8-0.5,1.1c-0.3,0.3-0.8,0.4-1.4,0.4c-0.4,0-0.7-0.1-1-0.2s-0.5-0.3-0.6-0.5
			C293.3,410.3,292.9,410.5,292.2,410.5z M295.2,408.3c-0.3,0-0.6,0.1-0.8,0.2c-0.2,0.2-0.3,0.4-0.3,0.6s0.1,0.5,0.3,0.6
			c0.2,0.2,0.5,0.2,0.8,0.2s0.6-0.1,0.8-0.2c0.2-0.2,0.3-0.4,0.3-0.6s-0.1-0.5-0.3-0.6S295.5,408.3,295.2,408.3z M292.3,408.4
			c-0.3,0-0.5,0.1-0.7,0.2s-0.3,0.3-0.3,0.6s0.1,0.4,0.3,0.6c0.2,0.1,0.4,0.2,0.7,0.2c0.3,0,0.5-0.1,0.7-0.2s0.3-0.3,0.3-0.5
			s-0.1-0.4-0.3-0.5C292.9,408.4,292.6,408.4,292.3,408.4z"/>
		<path class="st9" d="M290.7,407v-2.8h0.7l5.5,1.6v0.7l-5.4-1.7v2.2L290.7,407L290.7,407z"/>
		<path class="st9" d="M290.7,403.5v-2.6h0.9v2h1.7c-0.2-0.1-0.3-0.2-0.4-0.4c-0.1-0.2-0.2-0.4-0.2-0.6s0.1-0.4,0.2-0.6
			s0.3-0.3,0.5-0.4c0.4-0.2,0.9-0.3,1.4-0.3c0.7,0,1.2,0.1,1.6,0.4s0.6,0.6,0.6,1.1s-0.2,0.8-0.5,1.1c-0.3,0.3-0.7,0.4-1.2,0.5v-0.6
			c0.3,0,0.5-0.1,0.6-0.3c0.2-0.1,0.2-0.3,0.2-0.6c0-0.2-0.1-0.4-0.4-0.6c-0.2-0.1-0.6-0.2-1-0.2s-0.7,0.1-0.9,0.2
			c-0.2,0.1-0.3,0.3-0.3,0.6c0,0.2,0.1,0.4,0.2,0.5s0.3,0.2,0.6,0.3v0.6h-3.6L290.7,403.5L290.7,403.5z"/>
		<path class="st9" d="M291,399.1c-0.2-0.2-0.2-0.4-0.2-0.7s0.1-0.5,0.2-0.7c0.2-0.2,0.4-0.4,0.7-0.5c0.3-0.1,0.6-0.2,1-0.2
			s0.8-0.1,1.2-0.1c0.5,0,0.9,0,1.2,0.1c0.4,0,0.7,0.1,1,0.2s0.5,0.3,0.7,0.5s0.2,0.4,0.2,0.7s-0.1,0.5-0.2,0.7
			c-0.2,0.2-0.4,0.4-0.7,0.5c-0.3,0.1-0.6,0.2-1,0.2s-0.8,0.1-1.2,0.1c-0.5,0-0.9,0-1.2-0.1c-0.4,0-0.7-0.1-1-0.2
			C291.3,399.5,291.1,399.3,291,399.1z M291.6,398.4c0,0.2,0.1,0.3,0.2,0.5c0.1,0.1,0.3,0.2,0.5,0.3c0.4,0.1,0.9,0.1,1.5,0.1
			s1.1,0,1.5-0.1c0.5-0.1,0.7-0.4,0.7-0.7s-0.2-0.6-0.7-0.7c-0.4-0.1-0.9-0.1-1.5-0.1s-1.1,0-1.5,0.1
			C291.8,397.8,291.6,398,291.6,398.4z"/>
		<path class="st9" d="M348.4,402h-5.2v0.5h-0.9v-1.2h6.1V402z"/>
		<path class="st9" d="M347.6,398.8c0-0.3-0.2-0.5-0.5-0.6s-0.9-0.2-1.6-0.2c0.2,0.1,0.3,0.2,0.4,0.4c0.1,0.2,0.2,0.4,0.2,0.6
			c0,0.4-0.2,0.7-0.5,1s-0.8,0.4-1.5,0.4c-0.6,0-1.1-0.1-1.5-0.4s-0.6-0.6-0.6-1c0-0.5,0.3-0.9,0.8-1.1s1.3-0.3,2.4-0.3
			s1.9,0.1,2.4,0.3c0.5,0.2,0.8,0.6,0.8,1.1c0,0.4-0.2,0.7-0.5,1c-0.3,0.2-0.7,0.4-1.2,0.4v-0.6
			C347.3,399.5,347.6,399.2,347.6,398.8z M344,399.6c0.4,0,0.6-0.1,0.9-0.2c0.2-0.1,0.3-0.3,0.3-0.6c0-0.3-0.1-0.5-0.3-0.6
			c-0.2-0.1-0.5-0.2-0.9-0.2s-0.7,0.1-0.9,0.2c-0.2,0.1-0.3,0.3-0.3,0.6c0,0.2,0.1,0.4,0.3,0.6C343.4,399.6,343.7,399.6,344,399.6z"
			/>
		<path class="st9" d="M342.8,395.1c0,0.3,0.2,0.5,0.5,0.7s0.9,0.2,1.7,0.2c-0.3-0.1-0.4-0.2-0.6-0.4c-0.1-0.2-0.2-0.4-0.2-0.6
			c0-0.4,0.2-0.7,0.5-0.9c0.4-0.2,0.9-0.4,1.5-0.4s1.1,0.1,1.5,0.4c0.4,0.2,0.6,0.6,0.6,1c0,0.6-0.3,1-0.9,1.2
			c-0.3,0.1-0.6,0.2-1,0.2s-0.8,0.1-1.4,0.1c-2.1,0-3.1-0.5-3.1-1.5c0-0.4,0.2-0.7,0.5-0.9c0.3-0.2,0.7-0.4,1.1-0.4v0.6
			C343.1,394.5,342.8,394.7,342.8,395.1z M346.3,394.3c-0.4,0-0.7,0.1-0.9,0.2c-0.2,0.1-0.3,0.3-0.3,0.6c0,0.3,0.1,0.5,0.3,0.6
			c0.2,0.2,0.5,0.2,0.9,0.2s0.7-0.1,0.9-0.2c0.2-0.2,0.3-0.4,0.3-0.6c0-0.3-0.1-0.5-0.3-0.6C347,394.3,346.7,394.3,346.3,394.3z"/>
		<path class="st9" d="M343.6,392.8c-0.5,0-0.9-0.1-1.2-0.4c-0.3-0.2-0.5-0.6-0.5-1s0.2-0.8,0.5-1s0.7-0.4,1.2-0.4
			c0.3,0,0.6,0.1,0.8,0.2s0.4,0.3,0.6,0.4c0.1-0.2,0.3-0.4,0.6-0.5c0.3-0.1,0.6-0.2,1-0.2c0.6,0,1,0.1,1.4,0.4
			c0.3,0.3,0.5,0.6,0.5,1.1c0,0.4-0.2,0.8-0.5,1.1c-0.3,0.3-0.8,0.4-1.4,0.4c-0.4,0-0.7-0.1-1-0.2s-0.5-0.3-0.6-0.5
			C344.7,392.6,344.3,392.8,343.6,392.8z M346.6,390.5c-0.3,0-0.6,0.1-0.8,0.2c-0.2,0.2-0.3,0.4-0.3,0.6c0,0.3,0.1,0.5,0.3,0.6
			c0.2,0.2,0.5,0.2,0.8,0.2s0.6-0.1,0.8-0.2c0.2-0.2,0.3-0.4,0.3-0.6s-0.1-0.5-0.3-0.6S346.9,390.5,346.6,390.5z M343.7,390.6
			c-0.3,0-0.5,0.1-0.7,0.2s-0.3,0.3-0.3,0.6c0,0.2,0.1,0.4,0.3,0.6c0.2,0.1,0.4,0.2,0.7,0.2c0.3,0,0.5-0.1,0.7-0.2s0.3-0.3,0.3-0.5
			s-0.1-0.4-0.3-0.5C344.3,390.7,344,390.6,343.7,390.6z"/>
		<path class="st9" d="M342.2,389.3v-2.8h0.7l5.5,1.6v0.7l-5.4-1.7v2.2L342.2,389.3L342.2,389.3z"/>
		<path class="st9" d="M342.1,385.7v-2.6h0.9v2h1.7c-0.2-0.1-0.3-0.2-0.4-0.4c-0.1-0.2-0.2-0.4-0.2-0.6s0.1-0.4,0.2-0.6
			s0.3-0.3,0.5-0.4c0.4-0.2,0.9-0.3,1.4-0.3c0.7,0,1.2,0.1,1.6,0.4s0.6,0.6,0.6,1.1s-0.2,0.8-0.5,1.1c-0.3,0.3-0.7,0.4-1.2,0.5v-0.6
			c0.3,0,0.5-0.1,0.6-0.3c0.2-0.1,0.2-0.3,0.2-0.6c0-0.2-0.1-0.4-0.4-0.6c-0.2-0.1-0.6-0.2-1-0.2s-0.7,0.1-0.9,0.2
			c-0.2,0.1-0.3,0.3-0.3,0.6c0,0.2,0.1,0.4,0.2,0.5s0.3,0.2,0.6,0.3v0.6h-3.6L342.1,385.7L342.1,385.7z"/>
		<path class="st9" d="M399.7,390.2H399c-0.1-0.1-0.3-0.2-0.5-0.4c-0.2-0.2-0.4-0.3-0.5-0.4s-0.3-0.2-0.5-0.4
			c-0.2-0.1-0.4-0.3-0.5-0.3c-0.1-0.1-0.3-0.2-0.5-0.3c-0.3-0.2-0.7-0.2-1-0.2c-0.7,0-1.1,0.2-1.1,0.7c0,0.2,0.1,0.4,0.3,0.5
			c0.2,0.1,0.5,0.2,0.9,0.2v0.6c-0.7,0-1.1-0.1-1.5-0.4c-0.3-0.3-0.5-0.6-0.5-1s0.2-0.7,0.5-1c0.3-0.2,0.8-0.4,1.3-0.4
			c0.4,0,0.8,0.1,1.2,0.2c0.2,0.1,0.4,0.2,0.5,0.2c0.2,0.1,0.3,0.2,0.5,0.3c0.2,0.1,0.3,0.2,0.5,0.3c0.1,0.1,0.3,0.2,0.5,0.3
			c0.2,0.1,0.3,0.3,0.4,0.3v-1.9h0.8L399.7,390.2L399.7,390.2z"/>
		<path class="st9" d="M399.7,386.8H399c-0.1-0.1-0.3-0.2-0.5-0.4c-0.2-0.2-0.4-0.3-0.5-0.4s-0.3-0.2-0.5-0.4
			c-0.2-0.1-0.4-0.3-0.5-0.3c-0.1-0.1-0.3-0.2-0.5-0.3c-0.3-0.2-0.7-0.2-1-0.2c-0.7,0-1.1,0.2-1.1,0.7c0,0.2,0.1,0.4,0.3,0.5
			c0.2,0.1,0.5,0.2,0.9,0.2v0.6c-0.7,0-1.1-0.1-1.5-0.4c-0.3-0.3-0.5-0.6-0.5-1s0.2-0.7,0.5-1c0.3-0.2,0.8-0.4,1.3-0.4
			c0.4,0,0.8,0.1,1.2,0.2c0.2,0.1,0.4,0.2,0.5,0.2c0.2,0.1,0.3,0.2,0.5,0.3c0.2,0.1,0.3,0.2,0.5,0.3c0.1,0.1,0.3,0.2,0.5,0.3
			c0.2,0.1,0.3,0.3,0.4,0.3v-1.9h0.8L399.7,386.8L399.7,386.8z"/>
		<path class="st9" d="M393.5,383.2v-2.6h0.9v2h1.7c-0.2-0.1-0.3-0.2-0.4-0.4c-0.1-0.2-0.2-0.4-0.2-0.6s0.1-0.4,0.2-0.6
			s0.3-0.3,0.5-0.4c0.4-0.2,0.9-0.3,1.4-0.3c0.7,0,1.2,0.1,1.6,0.4s0.6,0.6,0.6,1.1s-0.2,0.8-0.5,1.1c-0.3,0.3-0.7,0.4-1.2,0.5v-0.6
			c0.3,0,0.5-0.1,0.6-0.3c0.2-0.1,0.2-0.3,0.2-0.6c0-0.2-0.1-0.4-0.4-0.6c-0.2-0.1-0.6-0.2-1-0.2s-0.7,0.1-0.9,0.2
			c-0.2,0.1-0.3,0.3-0.3,0.6c0,0.2,0.1,0.4,0.2,0.5s0.3,0.2,0.6,0.3v0.6h-3.6L393.5,383.2L393.5,383.2z"/>
		<path class="st9" d="M393.8,378.9c-0.2-0.2-0.2-0.4-0.2-0.7c0-0.3,0.1-0.5,0.2-0.7c0.2-0.2,0.4-0.4,0.7-0.5c0.3-0.1,0.6-0.2,1-0.2
			s0.8-0.1,1.2-0.1c0.5,0,0.9,0,1.2,0.1c0.4,0,0.7,0.1,1,0.2s0.5,0.3,0.7,0.5s0.2,0.4,0.2,0.7c0,0.3-0.1,0.5-0.2,0.7
			c-0.2,0.2-0.4,0.4-0.7,0.5c-0.3,0.1-0.6,0.2-1,0.2s-0.8,0.1-1.2,0.1c-0.5,0-0.9,0-1.2-0.1c-0.4,0-0.7-0.1-1-0.2
			C394.2,379.2,393.9,379.1,393.8,378.9z M394.4,378.1c0,0.2,0.1,0.3,0.2,0.5c0.1,0.1,0.3,0.2,0.5,0.3c0.4,0.1,0.9,0.1,1.5,0.1
			s1.1,0,1.5-0.1c0.5-0.1,0.7-0.4,0.7-0.7s-0.2-0.6-0.7-0.7c-0.4-0.1-0.9-0.1-1.5-0.1s-1.1,0-1.5,0.1
			C394.7,377.5,394.4,377.8,394.4,378.1z"/>
		<path class="st9" d="M393.8,375.1c-0.2-0.2-0.2-0.4-0.2-0.7c0-0.3,0.1-0.5,0.2-0.7c0.2-0.2,0.4-0.4,0.7-0.5c0.3-0.1,0.6-0.2,1-0.2
			s0.8-0.1,1.2-0.1c0.5,0,0.9,0,1.2,0.1c0.4,0,0.7,0.1,1,0.2s0.5,0.3,0.7,0.5s0.2,0.4,0.2,0.7c0,0.3-0.1,0.5-0.2,0.7
			c-0.2,0.2-0.4,0.4-0.7,0.5c-0.3,0.1-0.6,0.2-1,0.2s-0.8,0.1-1.2,0.1c-0.5,0-0.9,0-1.2-0.1c-0.4,0-0.7-0.1-1-0.2
			S393.9,375.3,393.8,375.1z M394.4,374.4c0,0.2,0.1,0.3,0.2,0.5c0.1,0.1,0.3,0.2,0.5,0.3c0.4,0.1,0.9,0.1,1.5,0.1s1.1,0,1.5-0.1
			c0.5-0.1,0.7-0.4,0.7-0.7s-0.2-0.6-0.7-0.7c-0.4-0.1-0.9-0.1-1.5-0.1s-1.1,0-1.5,0.1C394.7,373.8,394.4,374,394.4,374.4z"/>
		<path class="st9" d="M393.8,371.4c-0.2-0.2-0.2-0.4-0.2-0.7c0-0.3,0.1-0.5,0.2-0.7c0.2-0.2,0.4-0.4,0.7-0.5c0.3-0.1,0.6-0.2,1-0.2
			s0.8-0.1,1.2-0.1c0.5,0,0.9,0,1.2,0.1c0.4,0,0.7,0.1,1,0.2s0.5,0.3,0.7,0.5s0.2,0.4,0.2,0.7c0,0.3-0.1,0.5-0.2,0.7
			c-0.2,0.2-0.4,0.4-0.7,0.5c-0.3,0.1-0.6,0.2-1,0.2s-0.8,0.1-1.2,0.1c-0.5,0-0.9,0-1.2-0.1c-0.4,0-0.7-0.1-1-0.2
			S393.9,371.6,393.8,371.4z M394.4,370.7c0,0.2,0.1,0.3,0.2,0.5c0.1,0.1,0.3,0.2,0.5,0.3c0.4,0.1,0.9,0.1,1.5,0.1s1.1,0,1.5-0.1
			c0.5-0.1,0.7-0.4,0.7-0.7s-0.2-0.6-0.7-0.7c-0.4-0.1-0.9-0.1-1.5-0.1s-1.1,0-1.5,0.1C394.7,370,394.4,370.3,394.4,370.7z"/>
	</g>
</g>
<g id="miles-getallen">
	<g>
		<path class="st3" d="M38.9,424.5h-5.7v0.5h-0.7v-1.1h6.4V424.5z"/>
		<path class="st3" d="M32.4,423v-3.2H33l5.9,1.9v0.7l-5.9-2v2.6H32.4z"/>
		<path class="st3" d="M38.9,416.8h-1.5v2.4h-0.6l-4.4-2.3v-0.8h4.3v-0.6h0.7v0.6h1.5V416.8z M36.8,416.8h-3.6l3.6,1.8V416.8z"/>
		<path class="st3" d="M32.4,415.1v-3.2H33l5.9,1.9v0.7l-5.9-2v2.6H32.4z"/>
		<path class="st3" d="M32.9,409.4c0,0.4,0.2,0.7,0.6,0.9c0.4,0.2,1.1,0.3,2,0.3c-0.3-0.1-0.5-0.3-0.7-0.5s-0.2-0.5-0.2-0.8
			c0-0.4,0.2-0.8,0.6-1.1c0.4-0.3,0.9-0.4,1.6-0.4s1.2,0.1,1.6,0.4s0.6,0.7,0.6,1.2c0,0.8-0.5,1.3-1.4,1.5c-0.5,0.1-1.3,0.2-2.2,0.2
			s-1.7-0.1-2.3-0.4s-0.9-0.7-0.9-1.3c0-0.4,0.2-0.8,0.5-1s0.7-0.4,1.1-0.4v0.5c-0.3,0.1-0.5,0.2-0.7,0.3
			C33,409,32.9,409.2,32.9,409.4z M36.8,408.4c-0.5,0-0.8,0.1-1.1,0.3c-0.3,0.2-0.4,0.4-0.4,0.7c0,0.3,0.1,0.6,0.4,0.8
			c0.2,0.2,0.6,0.3,1.1,0.3s0.8-0.1,1.1-0.3c0.3-0.2,0.4-0.5,0.4-0.8s-0.1-0.6-0.4-0.8C37.6,408.5,37.2,408.4,36.8,408.4z"/>
		<path class="st3" d="M38.9,406.5h-5.7v0.5h-0.7v-1.1h6.4V406.5z"/>
		<path class="st3" d="M86.7,369.9c-0.3-0.3-0.4-0.6-0.4-1.1c0-0.4,0.2-0.8,0.5-1c0.3-0.3,0.7-0.4,1.2-0.4c0.4,0,0.7,0.1,0.9,0.2
			c0.3,0.1,0.4,0.3,0.5,0.6l0,0c0.1-0.3,0.3-0.5,0.6-0.6c0.3-0.2,0.7-0.2,1.2-0.2s0.9,0.1,1.3,0.4c0.3,0.3,0.5,0.6,0.5,1.1
			s-0.2,0.8-0.5,1.1s-0.8,0.5-1.4,0.5v-0.6c0.3,0,0.6-0.1,0.8-0.3c0.2-0.2,0.3-0.4,0.3-0.7c0-0.3-0.1-0.5-0.3-0.7
			c-0.2-0.2-0.5-0.2-0.9-0.2c-0.5,0-0.8,0.1-1,0.3c-0.2,0.2-0.3,0.6-0.3,1v0.2H89v-0.2c0-0.8-0.4-1.2-1.1-1.2
			c-0.3,0-0.6,0.1-0.8,0.2c-0.2,0.2-0.3,0.4-0.3,0.7s0.1,0.5,0.3,0.7c0.2,0.2,0.4,0.3,0.7,0.3v0.6C87.4,370.4,87,370.2,86.7,369.9z"
			/>
		<path class="st3" d="M92.9,364.2h-1.5v2.4h-0.6l-4.4-2.3v-0.8h4.3v-0.6h0.7v0.6h1.5V364.2z M90.8,364.2h-3.6l3.6,1.8V364.2z"/>
		<path class="st3" d="M92.2,360.5c0-0.4-0.2-0.6-0.6-0.8c-0.4-0.2-1-0.2-1.9-0.2c0.2,0.1,0.4,0.3,0.5,0.5s0.2,0.4,0.2,0.7
			c0,0.4-0.2,0.8-0.6,1.1c-0.4,0.3-0.9,0.4-1.5,0.4c-0.7,0-1.2-0.1-1.6-0.4s-0.6-0.7-0.6-1.2c0-0.6,0.3-1,0.8-1.2s1.4-0.4,2.5-0.4
			s2,0.1,2.6,0.3s0.8,0.6,0.8,1.2c0,0.4-0.2,0.8-0.5,1s-0.7,0.4-1.2,0.4v-0.5C91.9,361.4,92.2,361.1,92.2,360.5z M88.3,361.6
			c0.4,0,0.8-0.1,1-0.3c0.3-0.2,0.4-0.4,0.4-0.8c0-0.3-0.1-0.6-0.4-0.7c-0.3-0.2-0.6-0.3-1-0.3s-0.8,0.1-1.1,0.3
			c-0.3,0.2-0.4,0.4-0.4,0.7s0.1,0.6,0.4,0.7C87.6,361.5,87.9,361.6,88.3,361.6z"/>
		<path class="st3" d="M86.4,358v-2.8h0.7v2.3h2.1c-0.2-0.1-0.4-0.2-0.5-0.4c-0.1-0.2-0.2-0.4-0.2-0.7c0-0.3,0.1-0.5,0.2-0.7
			s0.3-0.4,0.5-0.5c0.4-0.2,0.9-0.3,1.5-0.3c0.7,0,1.2,0.1,1.7,0.4c0.4,0.3,0.6,0.7,0.6,1.2s-0.2,0.9-0.5,1.2
			c-0.3,0.3-0.7,0.5-1.3,0.5v-0.6c0.3-0.1,0.6-0.2,0.8-0.4c0.2-0.2,0.3-0.4,0.3-0.8c0-0.3-0.1-0.6-0.4-0.7c-0.3-0.2-0.7-0.3-1.2-0.3
			s-0.9,0.1-1.1,0.3c-0.3,0.2-0.4,0.4-0.4,0.8c0,0.2,0.1,0.4,0.3,0.6s0.4,0.3,0.7,0.4v0.5H86.4z"/>
		<path class="st3" d="M92.8,354h-0.6c-0.1-0.1-0.3-0.3-0.6-0.5c-0.3-0.2-0.5-0.4-0.6-0.5s-0.3-0.3-0.5-0.4
			c-0.2-0.2-0.4-0.3-0.6-0.4s-0.3-0.2-0.5-0.3c-0.4-0.2-0.8-0.3-1.1-0.3s-0.7,0.1-0.9,0.2c-0.2,0.1-0.3,0.4-0.3,0.7s0.1,0.5,0.4,0.7
			s0.6,0.3,1,0.3v0.6c-0.7,0-1.2-0.2-1.6-0.4s-0.5-0.6-0.5-1.1c0-0.4,0.2-0.8,0.5-1.1c0.3-0.3,0.8-0.4,1.4-0.4
			c0.7,0,1.4,0.3,2.2,0.8c0.3,0.2,0.5,0.3,0.6,0.4c0.4,0.3,0.7,0.6,1.1,0.9v-2.4h0.7L92.8,354L92.8,354z"/>
		<path class="st3" d="M92.9,349.7h-5.7v0.5h-0.7v-1.1h6.4C92.9,349.1,92.9,349.7,92.9,349.7z"/>
		<path class="st3" d="M140.4,315.7v-2.9h0.7v2.3h2.1c-0.2-0.1-0.4-0.2-0.5-0.4c-0.1-0.2-0.2-0.4-0.2-0.7c0-0.3,0.1-0.5,0.2-0.7
			s0.3-0.4,0.5-0.5c0.4-0.2,0.9-0.3,1.5-0.3c0.7,0,1.2,0.1,1.7,0.4s0.6,0.7,0.6,1.2s-0.2,0.9-0.5,1.2c-0.3,0.3-0.7,0.5-1.3,0.5v-0.6
			c0.3-0.1,0.6-0.2,0.8-0.4c0.2-0.2,0.3-0.4,0.3-0.8c0-0.3-0.1-0.6-0.4-0.7c-0.3-0.2-0.7-0.3-1.2-0.3s-0.9,0.1-1.1,0.3
			c-0.3,0.2-0.4,0.4-0.4,0.8c0,0.2,0.1,0.4,0.3,0.6s0.4,0.3,0.7,0.4v0.5h-3.8L140.4,315.7L140.4,315.7z"/>
		<path class="st3" d="M146.8,311.7h-0.6c-0.1-0.1-0.3-0.3-0.6-0.5s-0.5-0.4-0.6-0.5s-0.3-0.3-0.5-0.4c-0.2-0.2-0.4-0.3-0.6-0.4
			c-0.2-0.1-0.3-0.2-0.5-0.3c-0.4-0.2-0.8-0.3-1.1-0.3s-0.7,0.1-0.9,0.2s-0.3,0.4-0.3,0.7c0,0.3,0.1,0.5,0.4,0.7
			c0.3,0.2,0.6,0.3,1,0.3v0.6c-0.7,0-1.2-0.2-1.6-0.4s-0.5-0.6-0.5-1.1c0-0.4,0.2-0.8,0.5-1.1c0.3-0.3,0.8-0.4,1.4-0.4
			c0.7,0,1.4,0.3,2.2,0.8c0.3,0.2,0.5,0.3,0.6,0.4c0.4,0.3,0.7,0.6,1.1,0.9v-2.2h0.7L146.8,311.7L146.8,311.7z"/>
		<path class="st3" d="M146.9,305.5h-1.5v2.4h-0.6l-4.4-2.3v-0.8h4.3v-0.6h0.7v0.6h1.5V305.5z M144.8,305.5h-3.6l3.6,1.8V305.5z"/>
		<path class="st3" d="M146.8,303.7h-0.6c-0.1-0.1-0.3-0.3-0.6-0.5s-0.5-0.4-0.6-0.5s-0.3-0.3-0.5-0.4c-0.2-0.2-0.4-0.3-0.6-0.4
			c-0.2-0.1-0.3-0.2-0.5-0.3c-0.4-0.2-0.8-0.3-1.1-0.3s-0.7,0.1-0.9,0.2s-0.3,0.4-0.3,0.7c0,0.3,0.1,0.5,0.4,0.7
			c0.3,0.2,0.6,0.3,1,0.3v0.6c-0.7,0-1.2-0.2-1.6-0.4c-0.4-0.3-0.5-0.6-0.5-1.1c0-0.4,0.2-0.8,0.5-1.1c0.3-0.3,0.8-0.4,1.4-0.4
			c0.7,0,1.4,0.3,2.2,0.8c0.3,0.2,0.5,0.3,0.6,0.4c0.4,0.3,0.7,0.6,1.1,0.9v-2.2h0.7L146.8,303.7L146.8,303.7z"/>
		<path class="st3" d="M141.9,299.7c-0.5,0-0.9-0.1-1.3-0.4c-0.3-0.3-0.5-0.7-0.5-1.1s0.2-0.9,0.5-1.1c0.3-0.3,0.8-0.4,1.3-0.4
			c0.3,0,0.7,0.1,0.9,0.2c0.3,0.1,0.5,0.3,0.6,0.5c0.1-0.2,0.3-0.5,0.6-0.6c0.3-0.2,0.7-0.2,1.1-0.2c0.6,0,1.1,0.2,1.5,0.5
			s0.5,0.7,0.5,1.2s-0.2,0.9-0.5,1.2c-0.4,0.3-0.8,0.5-1.5,0.5c-0.4,0-0.8-0.1-1.1-0.2c-0.3-0.2-0.5-0.4-0.6-0.6
			C143.1,299.5,142.6,299.7,141.9,299.7z M145.1,297.1c-0.4,0-0.7,0.1-0.9,0.3c-0.2,0.2-0.3,0.5-0.3,0.8s0.1,0.6,0.3,0.8
			s0.5,0.3,1,0.3s0.7-0.1,1-0.3c0.2-0.2,0.4-0.5,0.4-0.8s-0.1-0.6-0.4-0.8C145.8,297.2,145.5,297.1,145.1,297.1z M142,297.2
			c-0.3,0-0.6,0.1-0.8,0.3c-0.2,0.2-0.3,0.4-0.3,0.7s0.1,0.5,0.3,0.7s0.5,0.3,0.8,0.3s0.6-0.1,0.8-0.3s0.3-0.4,0.3-0.7
			c0-0.3-0.1-0.5-0.3-0.7S142.3,297.2,142,297.2z"/>
		<path class="st3" d="M146.8,295.7h-0.6c-0.1-0.1-0.3-0.3-0.6-0.5s-0.5-0.4-0.6-0.5s-0.3-0.3-0.5-0.4c-0.2-0.2-0.4-0.3-0.6-0.4
			c-0.2-0.1-0.3-0.2-0.5-0.3c-0.4-0.2-0.8-0.3-1.1-0.3s-0.7,0.1-0.9,0.2s-0.3,0.4-0.3,0.7s0.1,0.5,0.4,0.7c0.3,0.2,0.6,0.3,1,0.3
			v0.6c-0.7,0-1.2-0.2-1.6-0.4s-0.5-0.6-0.5-1.1c0-0.4,0.2-0.8,0.5-1.1c0.3-0.3,0.8-0.4,1.4-0.4c0.7,0,1.4,0.3,2.2,0.8
			c0.3,0.2,0.5,0.3,0.6,0.4c0.4,0.3,0.7,0.6,1.1,0.9v-2.2h0.7L146.8,295.7L146.8,295.7z"/>
		<path class="st3" d="M184.1,261.5c0,0.4,0.2,0.7,0.6,0.9c0.4,0.2,1.1,0.3,2,0.3c-0.3-0.1-0.5-0.3-0.7-0.5s-0.2-0.5-0.2-0.8
			c0-0.4,0.2-0.8,0.6-1.1s0.9-0.4,1.6-0.4c0.7,0,1.2,0.1,1.6,0.4c0.4,0.3,0.6,0.7,0.6,1.2c0,0.8-0.5,1.3-1.4,1.5
			c-0.5,0.1-1.3,0.2-2.2,0.2s-1.7-0.1-2.3-0.4s-0.9-0.7-0.9-1.3c0-0.4,0.2-0.8,0.5-1s0.7-0.4,1.1-0.4v0.5c-0.3,0.1-0.5,0.2-0.7,0.3
			C184.2,261,184.1,261.2,184.1,261.5z M188,260.5c-0.5,0-0.8,0.1-1.1,0.3c-0.3,0.2-0.4,0.4-0.4,0.7s0.1,0.6,0.4,0.8
			c0.2,0.2,0.6,0.3,1.1,0.3s0.8-0.1,1.1-0.3c0.3-0.2,0.4-0.5,0.4-0.8s-0.1-0.6-0.4-0.8C188.8,260.6,188.4,260.5,188,260.5z"/>
		<path class="st3" d="M189.4,257.2c0-0.4-0.2-0.6-0.6-0.8c-0.4-0.2-1-0.2-1.9-0.2c0.2,0.1,0.4,0.3,0.5,0.5s0.2,0.4,0.2,0.7
			c0,0.4-0.2,0.8-0.6,1.1c-0.4,0.3-0.9,0.4-1.5,0.4c-0.7,0-1.2-0.1-1.6-0.4c-0.4-0.3-0.6-0.7-0.6-1.1c0-0.6,0.3-1,0.8-1.2
			s1.4-0.4,2.5-0.4s2,0.1,2.6,0.3c0.6,0.2,0.8,0.6,0.8,1.2c0,0.4-0.2,0.8-0.5,1s-0.7,0.4-1.2,0.4v-0.5
			C189.1,258.1,189.4,257.8,189.4,257.2z M185.5,258.3c0.4,0,0.8-0.1,1-0.3c0.3-0.2,0.4-0.4,0.4-0.8c0-0.3-0.1-0.6-0.4-0.7
			c-0.3-0.2-0.6-0.3-1-0.3s-0.8,0.1-1.1,0.3c-0.3,0.2-0.4,0.4-0.4,0.7c0,0.3,0.1,0.6,0.4,0.7C184.8,258.2,185.1,258.3,185.5,258.3z"
			/>
		<path class="st3" d="M189.4,253.1c0-0.4-0.2-0.6-0.6-0.8c-0.4-0.2-1-0.2-1.9-0.2c0.2,0.1,0.4,0.3,0.5,0.5s0.2,0.4,0.2,0.7
			c0,0.4-0.2,0.8-0.6,1.1c-0.4,0.3-0.9,0.4-1.5,0.4c-0.7,0-1.2-0.1-1.6-0.4c-0.4-0.3-0.6-0.7-0.6-1.1c0-0.6,0.3-1,0.8-1.2
			s1.4-0.4,2.5-0.4s2,0.1,2.6,0.3s0.8,0.6,0.8,1.2c0,0.4-0.2,0.8-0.5,1s-0.7,0.4-1.2,0.4v-0.5C189.1,253.9,189.4,253.6,189.4,253.1z
			 M185.5,254.1c0.4,0,0.8-0.1,1-0.3c0.3-0.2,0.4-0.4,0.4-0.8c0-0.3-0.1-0.6-0.4-0.7c-0.3-0.2-0.6-0.3-1-0.3s-0.8,0.1-1.1,0.3
			s-0.4,0.4-0.4,0.7s0.1,0.6,0.4,0.7C184.8,254,185.1,254.1,185.5,254.1z"/>
		<path class="st3" d="M184.2,250.1c-0.2-0.1-0.3-0.3-0.5-0.5c-0.1-0.2-0.2-0.4-0.2-0.7s0.1-0.5,0.2-0.8c0.2-0.2,0.4-0.4,0.7-0.5
			c0.6-0.2,1.4-0.3,2.3-0.3c1.2,0,2.1,0.2,2.7,0.5c0.4,0.3,0.6,0.7,0.6,1.2c0,0.9-0.7,1.5-2.2,1.6c-0.3,0-0.7,0-1,0
			c-0.4,0-0.7,0-1,0s-0.6-0.1-0.9-0.2C184.6,250.3,184.4,250.2,184.2,250.1z M185.1,248.1c-0.3,0.1-0.5,0.2-0.6,0.3
			c-0.1,0.2-0.2,0.3-0.2,0.5s0,0.4,0.1,0.5s0.2,0.2,0.4,0.3s0.3,0.1,0.6,0.2c0.2,0,0.5,0.1,0.7,0.1s0.5,0,0.8,0s0.6,0,0.8,0
			s0.4,0,0.7-0.1c0.2,0,0.4-0.1,0.6-0.2c0.2-0.1,0.3-0.2,0.4-0.3c0.1-0.1,0.1-0.3,0.1-0.5s0-0.3-0.1-0.5c-0.1-0.1-0.2-0.2-0.4-0.3
			s-0.3-0.1-0.6-0.2c-0.4-0.1-0.8-0.1-1.3-0.1s-0.9,0-1.1,0C185.6,248,185.3,248,185.1,248.1z"/>
		<path class="st3" d="M190.1,244.1h-1.5v2.4H188l-4.4-2.3v-0.8h4.3v-0.6h0.7v0.6h1.5V244.1z M188,244.1h-3.6l3.6,1.8V244.1z"/>
		<path class="st3" d="M183.9,241.8c-0.3-0.3-0.4-0.6-0.4-1.1c0-0.4,0.2-0.8,0.5-1c0.3-0.3,0.7-0.4,1.2-0.4c0.4,0,0.7,0.1,0.9,0.2
			c0.3,0.1,0.4,0.3,0.5,0.6l0,0c0.1-0.3,0.3-0.5,0.6-0.6c0.3-0.2,0.7-0.2,1.2-0.2s0.9,0.1,1.3,0.4c0.3,0.3,0.5,0.6,0.5,1.1
			s-0.2,0.8-0.5,1.1s-0.8,0.5-1.4,0.5v-0.6c0.3,0,0.6-0.1,0.8-0.3s0.3-0.4,0.3-0.7s-0.1-0.5-0.3-0.7s-0.5-0.2-0.9-0.2
			c-0.5,0-0.8,0.1-1,0.3s-0.3,0.6-0.3,1v0.2h-0.7v-0.2c0-0.8-0.4-1.2-1.1-1.2c-0.3,0-0.6,0.1-0.8,0.2c-0.2,0.2-0.3,0.4-0.3,0.7
			s0.1,0.5,0.3,0.7s0.4,0.3,0.7,0.3v0.6C184.6,242.2,184.2,242.1,183.9,241.8z"/>
		<path class="st3" d="M239.1,214.5c-0.5,0-0.9-0.1-1.3-0.4c-0.3-0.3-0.5-0.7-0.5-1.1c0-0.5,0.2-0.9,0.5-1.1
			c0.3-0.3,0.8-0.4,1.3-0.4c0.3,0,0.7,0.1,0.9,0.2c0.3,0.1,0.5,0.3,0.6,0.5c0.1-0.2,0.3-0.5,0.6-0.6s0.7-0.2,1.1-0.2
			c0.6,0,1.1,0.2,1.5,0.5s0.5,0.7,0.5,1.2s-0.2,0.9-0.5,1.2s-0.8,0.5-1.5,0.5c-0.4,0-0.8-0.1-1.1-0.2c-0.3-0.2-0.5-0.4-0.6-0.6
			C240.3,214.3,239.8,214.5,239.1,214.5z M242.3,211.9c-0.4,0-0.7,0.1-0.9,0.3s-0.3,0.5-0.3,0.8s0.1,0.6,0.3,0.8s0.5,0.3,1,0.3
			s0.7-0.1,1-0.3c0.2-0.2,0.4-0.5,0.4-0.8s-0.1-0.6-0.4-0.8C243,212,242.7,211.9,242.3,211.9z M239.2,212c-0.3,0-0.6,0.1-0.8,0.3
			s-0.3,0.4-0.3,0.7s0.1,0.5,0.3,0.7s0.5,0.3,0.8,0.3s0.6-0.1,0.8-0.3s0.3-0.4,0.3-0.7s-0.1-0.5-0.3-0.7S239.5,212,239.2,212z"/>
		<path class="st3" d="M237.6,210.6v-3.2h0.6l5.9,1.9v0.7l-5.9-2v2.6H237.6z"/>
		<path class="st3" d="M237.9,206.3c-0.3-0.3-0.4-0.6-0.4-1.1c0-0.4,0.2-0.8,0.5-1c0.3-0.3,0.7-0.4,1.2-0.4c0.4,0,0.7,0.1,0.9,0.2
			c0.3,0.1,0.4,0.3,0.5,0.6l0,0c0.1-0.3,0.3-0.5,0.6-0.6c0.3-0.2,0.7-0.2,1.2-0.2s0.9,0.1,1.3,0.4c0.3,0.3,0.5,0.6,0.5,1.1
			s-0.2,0.8-0.5,1.1s-0.8,0.5-1.4,0.5v-0.6c0.3,0,0.6-0.1,0.8-0.3s0.3-0.4,0.3-0.7s-0.1-0.5-0.3-0.7s-0.5-0.2-0.9-0.2
			c-0.5,0-0.8,0.1-1,0.3s-0.3,0.6-0.3,1v0.2h-0.7v-0.2c0-0.8-0.4-1.2-1.1-1.2c-0.3,0-0.6,0.1-0.8,0.2c-0.2,0.2-0.3,0.4-0.3,0.7
			s0.1,0.5,0.3,0.7s0.4,0.3,0.7,0.3v0.6C238.6,206.7,238.2,206.6,237.9,206.3z"/>
		<path class="st3" d="M239.1,202.7c-0.5,0-0.9-0.1-1.3-0.4c-0.3-0.3-0.5-0.7-0.5-1.1s0.2-0.9,0.5-1.1c0.3-0.3,0.8-0.4,1.3-0.4
			c0.3,0,0.7,0.1,0.9,0.2c0.3,0.1,0.5,0.3,0.6,0.5c0.1-0.2,0.3-0.5,0.6-0.6c0.3-0.2,0.7-0.2,1.1-0.2c0.6,0,1.1,0.2,1.5,0.5
			s0.5,0.7,0.5,1.2s-0.2,0.9-0.5,1.2c-0.4,0.3-0.8,0.5-1.5,0.5c-0.4,0-0.8-0.1-1.1-0.2c-0.3-0.2-0.5-0.4-0.6-0.6
			C240.3,202.5,239.8,202.7,239.1,202.7z M242.3,200.1c-0.4,0-0.7,0.1-0.9,0.3s-0.3,0.5-0.3,0.8s0.1,0.6,0.3,0.8s0.5,0.3,1,0.3
			s0.7-0.1,1-0.3c0.2-0.2,0.4-0.5,0.4-0.8s-0.1-0.6-0.4-0.8C243,200.2,242.7,200.1,242.3,200.1z M239.2,200.2
			c-0.3,0-0.6,0.1-0.8,0.3s-0.3,0.4-0.3,0.7s0.1,0.5,0.3,0.7s0.5,0.3,0.8,0.3s0.6-0.1,0.8-0.3s0.3-0.4,0.3-0.7s-0.1-0.5-0.3-0.7
			S239.5,200.2,239.2,200.2z"/>
		<path class="st3" d="M238.2,198.2c-0.2-0.1-0.3-0.3-0.5-0.5c-0.1-0.2-0.2-0.4-0.2-0.7s0.1-0.5,0.2-0.8s0.4-0.4,0.7-0.5
			c0.6-0.2,1.4-0.3,2.3-0.3c1.2,0,2.1,0.2,2.7,0.5c0.4,0.3,0.6,0.7,0.6,1.2c0,0.9-0.7,1.5-2.2,1.6c-0.3,0-0.7,0-1,0
			c-0.4,0-0.7,0-1,0s-0.6-0.1-0.9-0.2S238.4,198.3,238.2,198.2z M239.1,196.1c-0.3,0.1-0.5,0.2-0.6,0.3c-0.1,0.2-0.2,0.3-0.2,0.5
			s0,0.4,0.1,0.5s0.2,0.2,0.4,0.3s0.3,0.1,0.6,0.2c0.2,0,0.5,0.1,0.7,0.1s0.5,0,0.8,0s0.6,0,0.8,0s0.4,0,0.7-0.1
			c0.2,0,0.4-0.1,0.6-0.2c0.2-0.1,0.3-0.2,0.4-0.3s0.1-0.3,0.1-0.5s0-0.3-0.1-0.5c-0.1-0.1-0.2-0.2-0.4-0.3s-0.3-0.1-0.6-0.2
			c-0.4-0.1-0.8-0.1-1.3-0.1s-0.9,0-1.1,0C239.6,196,239.3,196,239.1,196.1z"/>
		<path class="st3" d="M237.9,194c-0.3-0.3-0.4-0.6-0.4-1.1c0-0.4,0.2-0.8,0.5-1c0.3-0.3,0.7-0.4,1.2-0.4c0.4,0,0.7,0.1,0.9,0.2
			c0.3,0.1,0.4,0.3,0.5,0.6l0,0c0.1-0.3,0.3-0.5,0.6-0.6c0.3-0.2,0.7-0.2,1.2-0.2s0.9,0.1,1.3,0.4c0.3,0.3,0.5,0.6,0.5,1.1
			s-0.2,0.8-0.5,1.1s-0.8,0.5-1.4,0.5V194c0.3,0,0.6-0.1,0.8-0.3s0.3-0.4,0.3-0.7s-0.1-0.5-0.3-0.7s-0.5-0.2-0.9-0.2
			c-0.5,0-0.8,0.1-1,0.3s-0.3,0.6-0.3,1v0.2h-0.7v-0.2c0-0.8-0.4-1.2-1.1-1.2c-0.3,0-0.6,0.1-0.8,0.2c-0.2,0.2-0.3,0.4-0.3,0.7
			s0.1,0.5,0.3,0.7s0.4,0.3,0.7,0.3v0.6C238.6,194.5,238.2,194.3,237.9,194z"/>
		<path class="st3" d="M298.1,155.7h-5.7v0.5h-0.7v-1.1h6.4L298.1,155.7L298.1,155.7z"/>
		<path class="st3" d="M292.2,153.5c-0.2-0.1-0.3-0.3-0.5-0.5c-0.1-0.2-0.2-0.4-0.2-0.7s0.1-0.5,0.2-0.8c0.2-0.2,0.4-0.4,0.7-0.5
			c0.6-0.2,1.4-0.3,2.3-0.3c1.2,0,2.1,0.2,2.7,0.5c0.4,0.3,0.6,0.7,0.6,1.2c0,0.9-0.7,1.5-2.2,1.6c-0.3,0-0.7,0-1,0
			c-0.4,0-0.7,0-1,0s-0.6-0.1-0.9-0.2C292.6,153.7,292.4,153.6,292.2,153.5z M293.1,151.5c-0.3,0.1-0.5,0.2-0.6,0.3
			s-0.2,0.3-0.2,0.5s0,0.4,0.1,0.5s0.2,0.2,0.4,0.3c0.2,0.1,0.3,0.1,0.6,0.2c0.2,0,0.5,0.1,0.7,0.1s0.5,0,0.8,0s0.6,0,0.8,0
			c0.2,0,0.4,0,0.7-0.1c0.2,0,0.4-0.1,0.6-0.2c0.2-0.1,0.3-0.2,0.4-0.3s0.1-0.3,0.1-0.5s0-0.3-0.1-0.5c-0.1-0.1-0.2-0.2-0.4-0.3
			c-0.2-0.1-0.3-0.1-0.6-0.2c-0.4-0.1-0.8-0.1-1.3-0.1s-0.9,0-1.1,0C293.6,151.4,293.3,151.4,293.1,151.5z"/>
		<path class="st3" d="M298.1,147.5h-1.5v2.4H296l-4.4-2.3v-0.8h4.3v-0.6h0.7v0.6h1.5V147.5z M296,147.5h-3.6l3.6,1.8V147.5z"/>
		<path class="st3" d="M293.1,145.5c-0.5,0-0.9-0.1-1.3-0.4c-0.3-0.3-0.5-0.7-0.5-1.1s0.2-0.9,0.5-1.1c0.3-0.3,0.8-0.4,1.3-0.4
			c0.3,0,0.7,0.1,0.9,0.2c0.3,0.1,0.5,0.3,0.6,0.5c0.1-0.2,0.3-0.5,0.6-0.6c0.3-0.2,0.7-0.2,1.1-0.2c0.6,0,1.1,0.2,1.5,0.5
			s0.5,0.7,0.5,1.2s-0.2,0.9-0.5,1.2c-0.4,0.3-0.8,0.5-1.5,0.5c-0.4,0-0.8-0.1-1.1-0.2c-0.3-0.2-0.5-0.4-0.6-0.6
			C294.3,145.3,293.8,145.5,293.1,145.5z M296.3,142.9c-0.4,0-0.7,0.1-0.9,0.3c-0.2,0.2-0.3,0.5-0.3,0.8s0.1,0.6,0.3,0.8
			c0.2,0.2,0.5,0.3,1,0.3s0.7-0.1,1-0.3c0.2-0.2,0.4-0.5,0.4-0.8s-0.1-0.6-0.4-0.8C297,143,296.7,142.9,296.3,142.9z M293.2,143
			c-0.3,0-0.6,0.1-0.8,0.3c-0.2,0.2-0.3,0.4-0.3,0.7s0.1,0.5,0.3,0.7s0.5,0.3,0.8,0.3s0.6-0.1,0.8-0.3c0.2-0.2,0.3-0.4,0.3-0.7
			s-0.1-0.5-0.3-0.7S293.5,143,293.2,143z"/>
		<path class="st3" d="M291.6,141.3v-2.8h0.7v2.3h2.1c-0.2-0.1-0.4-0.2-0.5-0.4s-0.2-0.4-0.2-0.7s0.1-0.5,0.2-0.7s0.3-0.4,0.5-0.5
			c0.4-0.2,0.9-0.3,1.5-0.3c0.7,0,1.2,0.1,1.7,0.4s0.6,0.7,0.6,1.2s-0.2,0.9-0.5,1.2s-0.7,0.5-1.3,0.5v-0.7c0.3-0.1,0.6-0.2,0.8-0.4
			c0.2-0.2,0.3-0.4,0.3-0.8c0-0.3-0.1-0.6-0.4-0.7c-0.3-0.2-0.7-0.3-1.2-0.3s-0.9,0.1-1.1,0.3c-0.3,0.2-0.4,0.4-0.4,0.8
			c0,0.2,0.1,0.4,0.3,0.6s0.4,0.3,0.7,0.4v0.5L291.6,141.3L291.6,141.3z"/>
		<path class="st3" d="M292.1,135.5c0,0.4,0.2,0.7,0.6,0.9s1.1,0.3,2,0.3c-0.3-0.1-0.5-0.3-0.7-0.5s-0.2-0.5-0.2-0.8
			c0-0.4,0.2-0.8,0.6-1.1s0.9-0.4,1.6-0.4s1.2,0.1,1.6,0.4c0.4,0.3,0.6,0.7,0.6,1.2c0,0.8-0.5,1.3-1.4,1.5c-0.5,0.1-1.3,0.2-2.2,0.2
			s-1.7-0.1-2.3-0.4c-0.6-0.3-0.9-0.7-0.9-1.3c0-0.4,0.2-0.8,0.5-1s0.7-0.4,1.1-0.4v0.5c-0.3,0.1-0.5,0.2-0.7,0.3
			C292.2,135,292.1,135.2,292.1,135.5z M296,134.4c-0.5,0-0.8,0.1-1.1,0.3c-0.3,0.2-0.4,0.4-0.4,0.7s0.1,0.6,0.4,0.8
			c0.2,0.2,0.6,0.3,1.1,0.3s0.8-0.1,1.1-0.3c0.3-0.2,0.4-0.5,0.4-0.8s-0.1-0.6-0.4-0.8C296.8,134.5,296.4,134.4,296,134.4z"/>
		<path class="st3" d="M298.1,130.7h-1.5v2.4H296l-4.4-2.3V130h4.3v-0.6h0.7v0.6h1.5V130.7z M296,130.7h-3.6l3.6,1.8V130.7z"/>
		<path class="st3" d="M341.3,107.1h-5.7v0.5h-0.7v-1.1h6.4L341.3,107.1L341.3,107.1z"/>
		<path class="st3" d="M341.2,105.4h-0.6c-0.1-0.1-0.3-0.3-0.6-0.5c-0.3-0.2-0.5-0.4-0.6-0.5s-0.3-0.3-0.5-0.4
			c-0.2-0.2-0.4-0.3-0.6-0.4s-0.3-0.2-0.5-0.3c-0.4-0.2-0.8-0.3-1.1-0.3s-0.7,0.1-0.9,0.2c-0.2,0.1-0.3,0.4-0.3,0.7
			c0,0.3,0.1,0.5,0.4,0.7s0.6,0.3,1,0.3v0.6c-0.7,0-1.2-0.2-1.6-0.4c-0.4-0.2-0.5-0.6-0.5-1.1c0-0.4,0.2-0.8,0.5-1.1
			s0.8-0.4,1.4-0.4c0.7,0,1.4,0.3,2.2,0.8c0.3,0.2,0.5,0.3,0.6,0.4c0.4,0.3,0.7,0.6,1.1,0.9v-2.2h0.7v3
			C341.3,105.4,341.2,105.4,341.2,105.4z"/>
		<path class="st3" d="M341.2,101.6h-0.6c-0.1-0.1-0.3-0.3-0.6-0.5c-0.3-0.2-0.5-0.4-0.6-0.5s-0.3-0.3-0.5-0.4
			c-0.2-0.2-0.4-0.3-0.6-0.4s-0.3-0.2-0.5-0.3c-0.4-0.2-0.8-0.3-1.1-0.3s-0.7,0.1-0.9,0.2c-0.2,0.1-0.3,0.4-0.3,0.7
			c0,0.3,0.1,0.5,0.4,0.7s0.6,0.3,1,0.3v0.6c-0.7,0-1.2-0.2-1.6-0.4c-0.4-0.2-0.5-0.6-0.5-1.1c0-0.4,0.2-0.8,0.5-1.1
			c0.3-0.3,0.8-0.4,1.4-0.4c0.7,0,1.4,0.3,2.2,0.8c0.3,0.2,0.5,0.3,0.6,0.4c0.4,0.3,0.7,0.6,1.1,0.9v-2.2h0.7v3
			C341.3,101.6,341.2,101.6,341.2,101.6z"/>
		<path class="st3" d="M335.1,97.3c-0.3-0.3-0.4-0.6-0.4-1.1c0-0.4,0.2-0.8,0.5-1c0.3-0.3,0.7-0.4,1.2-0.4c0.4,0,0.7,0.1,0.9,0.2
			c0.3,0.1,0.4,0.3,0.5,0.6l0,0c0.1-0.3,0.3-0.5,0.6-0.6c0.3-0.1,0.7-0.2,1.2-0.2s0.9,0.1,1.3,0.4c0.3,0.3,0.5,0.6,0.5,1.1
			s-0.2,0.8-0.5,1.1c-0.3,0.3-0.8,0.5-1.4,0.5v-0.6c0.3,0,0.6-0.1,0.8-0.3c0.2-0.2,0.3-0.4,0.3-0.7c0-0.3-0.1-0.5-0.3-0.7
			c-0.2-0.2-0.5-0.2-0.9-0.2c-0.5,0-0.8,0.1-1,0.3c-0.2,0.2-0.3,0.6-0.3,1v0.2h-0.7v-0.2c0-0.8-0.4-1.2-1.1-1.2
			c-0.3,0-0.6,0.1-0.8,0.2c-0.2,0.2-0.3,0.4-0.3,0.7s0.1,0.5,0.3,0.7c0.2,0.2,0.4,0.3,0.7,0.3V98C335.8,97.7,335.4,97.6,335.1,97.3z
			"/>
		<path class="st3" d="M335.1,93.4c-0.3-0.3-0.4-0.6-0.4-1.1c0-0.4,0.2-0.8,0.5-1c0.3-0.3,0.7-0.4,1.2-0.4c0.4,0,0.7,0.1,0.9,0.2
			c0.3,0.1,0.4,0.3,0.5,0.6l0,0c0.1-0.3,0.3-0.5,0.6-0.6c0.3-0.2,0.7-0.2,1.2-0.2s0.9,0.1,1.3,0.4c0.3,0.3,0.5,0.6,0.5,1.1
			s-0.2,0.8-0.5,1.1c-0.3,0.3-0.8,0.5-1.4,0.5v-0.6c0.3,0,0.6-0.1,0.8-0.3c0.2-0.2,0.3-0.4,0.3-0.7c0-0.3-0.1-0.5-0.3-0.7
			c-0.2-0.2-0.5-0.2-0.9-0.2c-0.5,0-0.8,0.1-1,0.3s-0.3,0.6-0.3,1V93h-0.7v-0.2c0-0.8-0.4-1.2-1.1-1.2c-0.3,0-0.6,0.1-0.8,0.2
			c-0.2,0.2-0.3,0.4-0.3,0.7c0,0.3,0.1,0.5,0.3,0.7c0.2,0.2,0.4,0.3,0.7,0.3v0.6C335.8,93.8,335.4,93.7,335.1,93.4z"/>
		<path class="st3" d="M341.2,90h-0.6c-0.1-0.1-0.3-0.3-0.6-0.5c-0.3-0.2-0.5-0.4-0.6-0.5s-0.3-0.3-0.5-0.4
			c-0.2-0.2-0.4-0.3-0.6-0.4s-0.3-0.2-0.5-0.3c-0.4-0.2-0.8-0.3-1.1-0.3s-0.7,0.1-0.9,0.2c-0.2,0.1-0.3,0.4-0.3,0.7s0.1,0.5,0.4,0.7
			s0.6,0.3,1,0.3v0.6c-0.7,0-1.2-0.2-1.6-0.4c-0.4-0.2-0.5-0.6-0.5-1.1c0-0.4,0.2-0.8,0.5-1.1c0.3-0.3,0.8-0.4,1.4-0.4
			c0.7,0,1.4,0.3,2.2,0.8c0.3,0.2,0.5,0.3,0.6,0.4c0.4,0.3,0.7,0.6,1.1,0.9V87h0.7v3H341.2z"/>
		<path class="st3" d="M334.8,86v-2.8h0.7v2.3h2.1c-0.2-0.1-0.4-0.2-0.5-0.4c-0.1-0.2-0.2-0.4-0.2-0.7s0.1-0.5,0.2-0.7
			s0.3-0.4,0.5-0.5c0.4-0.2,0.9-0.3,1.5-0.3c0.7,0,1.2,0.1,1.7,0.4c0.4,0.3,0.6,0.7,0.6,1.2s-0.2,0.9-0.5,1.2s-0.7,0.5-1.3,0.5v-0.6
			c0.3-0.1,0.6-0.2,0.8-0.4c0.2-0.2,0.3-0.4,0.3-0.8c0-0.3-0.1-0.6-0.4-0.7c-0.3-0.2-0.7-0.3-1.2-0.3s-0.9,0.1-1.1,0.3
			c-0.3,0.2-0.4,0.4-0.4,0.8c0,0.2,0.1,0.4,0.3,0.6c0.2,0.2,0.4,0.3,0.7,0.4V86H334.8z"/>
		<path class="st3" d="M395.3,56.5h-5.7V57h-0.7v-1.1h6.4L395.3,56.5L395.3,56.5z"/>
		<path class="st3" d="M389.1,54.3c-0.3-0.3-0.4-0.6-0.4-1.1c0-0.4,0.2-0.8,0.5-1c0.3-0.3,0.7-0.4,1.2-0.4c0.4,0,0.7,0.1,0.9,0.2
			c0.3,0.1,0.4,0.3,0.5,0.6l0,0c0.1-0.3,0.3-0.5,0.6-0.6s0.7-0.2,1.2-0.2s0.9,0.1,1.3,0.4c0.3,0.3,0.5,0.6,0.5,1.1s-0.2,0.8-0.5,1.1
			s-0.8,0.5-1.4,0.5v-0.6c0.3,0,0.6-0.1,0.8-0.3c0.2-0.2,0.3-0.4,0.3-0.7s-0.1-0.5-0.3-0.7c-0.2-0.2-0.5-0.2-0.9-0.2
			c-0.5,0-0.8,0.1-1,0.3s-0.3,0.6-0.3,1v0.1h-0.7v-0.2c0-0.8-0.4-1.2-1.1-1.2c-0.3,0-0.6,0.1-0.8,0.2c-0.2,0.2-0.3,0.4-0.3,0.7
			s0.1,0.5,0.3,0.7c0.2,0.2,0.4,0.3,0.7,0.3v0.5C389.8,54.8,389.4,54.6,389.1,54.3z"/>
		<path class="st3" d="M394.6,49.1c0-0.4-0.2-0.6-0.6-0.8s-1-0.2-1.9-0.2c0.2,0.1,0.4,0.3,0.5,0.5s0.2,0.4,0.2,0.7
			c0,0.4-0.2,0.8-0.6,1.1s-0.9,0.4-1.5,0.4c-0.7,0-1.2-0.1-1.6-0.4s-0.6-0.7-0.6-1.1c0-0.6,0.3-1,0.8-1.2s1.4-0.4,2.5-0.4
			s2,0.1,2.6,0.3s0.8,0.6,0.8,1.2c0,0.4-0.2,0.8-0.5,1s-0.7,0.4-1.2,0.4v-0.5C394.3,50,394.6,49.7,394.6,49.1z M390.7,50.2
			c0.4,0,0.8-0.1,1-0.3c0.3-0.2,0.4-0.4,0.4-0.8c0-0.3-0.1-0.6-0.4-0.7c-0.3-0.2-0.6-0.3-1-0.3s-0.8,0.1-1.1,0.3
			c-0.3,0.2-0.4,0.4-0.4,0.7s0.1,0.6,0.4,0.7C390,50.1,390.3,50.2,390.7,50.2z"/>
		<path class="st3" d="M390.3,46.6c-0.5,0-0.9-0.1-1.3-0.4c-0.3-0.3-0.5-0.7-0.5-1.1c0-0.5,0.2-0.9,0.5-1.1s0.8-0.4,1.3-0.4
			c0.3,0,0.7,0.1,0.9,0.2c0.3,0.1,0.5,0.3,0.6,0.5c0.1-0.2,0.3-0.5,0.6-0.6s0.7-0.2,1.1-0.2c0.6,0,1.1,0.2,1.5,0.5s0.5,0.7,0.5,1.2
			s-0.2,0.9-0.5,1.2c-0.4,0.3-0.8,0.5-1.5,0.5c-0.4,0-0.8-0.1-1.1-0.2c-0.3-0.2-0.5-0.4-0.6-0.6C391.5,46.3,391,46.6,390.3,46.6z
			 M393.5,43.9c-0.4,0-0.7,0.1-0.9,0.3c-0.2,0.2-0.3,0.5-0.3,0.8s0.1,0.6,0.3,0.8c0.2,0.2,0.5,0.3,1,0.3s0.7-0.1,1-0.3
			c0.2-0.2,0.4-0.5,0.4-0.8s-0.1-0.6-0.4-0.8C394.2,44,393.9,43.9,393.5,43.9z M390.4,44.1c-0.3,0-0.6,0.1-0.8,0.3
			c-0.2,0.2-0.3,0.4-0.3,0.7s0.1,0.5,0.3,0.7s0.5,0.3,0.8,0.3s0.6-0.1,0.8-0.3c0.2-0.2,0.3-0.4,0.3-0.7s-0.1-0.5-0.3-0.7
			S390.7,44.1,390.4,44.1z"/>
		<path class="st3" d="M389.4,42c-0.2-0.1-0.3-0.3-0.5-0.5c-0.1-0.2-0.2-0.4-0.2-0.7s0.1-0.5,0.2-0.8s0.4-0.4,0.7-0.5
			c0.6-0.2,1.4-0.3,2.3-0.3c1.2,0,2.1,0.2,2.7,0.5c0.4,0.3,0.6,0.7,0.6,1.2c0,0.9-0.7,1.5-2.2,1.6c-0.3,0-0.7,0-1,0
			c-0.4,0-0.7,0-1,0s-0.6-0.1-0.9-0.2C389.8,42.2,389.6,42.1,389.4,42z M390.3,40c-0.3,0.1-0.5,0.2-0.6,0.3s-0.2,0.3-0.2,0.5
			s0,0.4,0.1,0.5s0.2,0.2,0.4,0.3c0.2,0.1,0.3,0.1,0.6,0.2c0.2,0,0.5,0.1,0.7,0.1s0.5,0,0.8,0s0.6,0,0.8,0c0.2,0,0.4,0,0.7-0.1
			c0.2,0,0.4-0.1,0.6-0.2c0.2-0.1,0.3-0.2,0.4-0.3s0.1-0.3,0.1-0.5s0-0.3-0.1-0.5c-0.1-0.1-0.2-0.2-0.4-0.3
			c-0.2-0.1-0.3-0.1-0.6-0.2c-0.4-0.1-0.8-0.1-1.3-0.1s-0.9,0-1.1,0C390.8,39.8,390.5,39.9,390.3,40z"/>
		<path class="st3" d="M390.3,38.2c-0.5,0-0.9-0.1-1.3-0.4c-0.3-0.3-0.5-0.7-0.5-1.1c0-0.5,0.2-0.9,0.5-1.1s0.8-0.4,1.3-0.4
			c0.3,0,0.7,0.1,0.9,0.2c0.3,0.1,0.5,0.3,0.6,0.5c0.1-0.2,0.3-0.5,0.6-0.6s0.7-0.2,1.1-0.2c0.6,0,1.1,0.2,1.5,0.5s0.5,0.7,0.5,1.2
			s-0.2,0.9-0.5,1.2c-0.4,0.3-0.8,0.5-1.5,0.5c-0.4,0-0.8-0.1-1.1-0.2c-0.3-0.2-0.5-0.4-0.6-0.6C391.5,38,391,38.2,390.3,38.2z
			 M393.5,35.6c-0.4,0-0.7,0.1-0.9,0.3c-0.2,0.2-0.3,0.5-0.3,0.8s0.1,0.6,0.3,0.8s0.5,0.3,1,0.3s0.7-0.1,1-0.3
			c0.2-0.2,0.4-0.5,0.4-0.8s-0.1-0.6-0.4-0.8C394.2,35.7,393.9,35.6,393.5,35.6z M390.4,35.7c-0.3,0-0.6,0.1-0.8,0.3
			c-0.2,0.2-0.3,0.4-0.3,0.7s0.1,0.5,0.3,0.7s0.5,0.3,0.8,0.3s0.6-0.1,0.8-0.3s0.3-0.4,0.3-0.7s-0.1-0.5-0.3-0.7
			S390.7,35.7,390.4,35.7z"/>
		<path class="st3" d="M388.8,34v-2.8h0.7v2.3h2.1c-0.2-0.1-0.4-0.2-0.5-0.4s-0.2-0.4-0.2-0.7s0.1-0.5,0.2-0.7s0.3-0.4,0.5-0.5
			c0.4-0.2,0.9-0.3,1.5-0.3c0.7,0,1.2,0.1,1.7,0.4c0.4,0.3,0.6,0.7,0.6,1.2s-0.2,0.9-0.5,1.2s-0.7,0.5-1.3,0.5v-0.6
			c0.3-0.1,0.6-0.2,0.8-0.4c0.2-0.2,0.3-0.4,0.3-0.8c0-0.3-0.1-0.6-0.4-0.7c-0.3-0.2-0.7-0.3-1.2-0.3s-0.9,0.1-1.1,0.3
			c-0.3,0.2-0.4,0.4-0.4,0.8c0,0.2,0.1,0.4,0.3,0.6s0.4,0.3,0.7,0.4V34H388.8z"/>
	</g>
</g>
</svg>
