<?xml version="1.0" encoding="utf-8"?>
<!-- Generator: Adobe Illustrator 21.0.0, SVG Export Plug-In . SVG Version: 6.00 Build 0)  -->
<?xml-stylesheet type="text/css" href="svg-styles.css"?>

<svg version="1.1" id="Layer_1" xmlns="http://www.w3.org/2000/svg" xmlns:xlink="http://www.w3.org/1999/xlink" x="0px" y="0px"
	 viewBox="0 0 316.2 391.7" style="enable-background:new 0 0 316.2 391.7;" xml:space="preserve">
<style type="text/css">
	.st0{clip-path:url(#SVGID_2_);fill:#875985;}
	.st1{fill:#FFFFFF;}
	.st2{opacity:0.5;clip-path:url(#SVGID_4_);fill:#FFFFFF;enable-background:new    ;}
	.st3{clip-path:url(#SVGID_6_);fill:#875985;}
	.st4{fill:#FFFFFF;enable-background:new    ;}
</style>
<g id="used">
	<g>
		<g>
			<g>
				<defs>
					<rect id="SVGID_1_" x="-218.9" y="-28.3" width="720" height="432"/>
				</defs>
				<clipPath id="SVGID_2_">
					<use xlink:href="#SVGID_1_"  style="overflow:visible;"/>
				</clipPath>
				<path class="st0" d="M46.8,112.3c23.5-27.7,58-43.6,94.3-43.6v61.9c-18.2,0-35.4,8-47.2,21.8L46.8,112.3z"/>
			</g>
		</g>
	</g>
</g>
<g id="used-per">
	<g>
		<path class="st1" d="M96.4,99.3L96.4,99.3L95,100l-0.2-0.8l1.7-0.9h0.9v7.8h-1V99.3z"/>
		<path class="st1" d="M103.6,106.1V104H100v-0.7l3.5-5h1.1v4.8h1.1v0.8h-1.1v2.1L103.6,106.1L103.6,106.1z M103.6,103.2v-2.6
			c0-0.4,0-0.8,0-1.2l0,0c-0.2,0.5-0.4,0.8-0.6,1.2l-1.9,2.7l0,0L103.6,103.2L103.6,103.2z"/>
		<path class="st1" d="M110,100.5c0,1.6-0.9,2.5-1.9,2.5s-1.8-0.8-1.8-2.4s0.9-2.4,1.9-2.4C109.3,98.2,110,99,110,100.5z
			 M107.1,100.6c0,1,0.3,1.8,1,1.8s1-0.7,1-1.8c0-0.9-0.3-1.7-1-1.7C107.5,98.8,107.1,99.6,107.1,100.6z M108,106.2l4.6-8.1h0.7
			l-4.6,8.1H108z M115.1,103.7c0,1.6-0.9,2.5-1.9,2.5s-1.8-0.8-1.8-2.3c0-1.6,0.9-2.4,1.9-2.4C114.3,101.4,115.1,102.2,115.1,103.7z
			 M112.2,103.8c0,1,0.4,1.8,1,1.8c0.7,0,1-0.7,1-1.8c0-0.9-0.3-1.7-1-1.7C112.6,102,112.2,102.8,112.2,103.8z"/>
	</g>
</g>
<g id="w-legend">
	<g>
		<g>
			<g>
				<defs>
					<rect id="SVGID_3_" x="-218.9" y="-28.3" width="720" height="432"/>
				</defs>
				<clipPath id="SVGID_4_">
					<use xlink:href="#SVGID_3_"  style="overflow:visible;"/>
				</clipPath>
				<rect x="23.1" y="371.7" class="st2" width="10" height="10"/>
			</g>
		</g>
	</g>
	<g>
		<g>
			<g>
				<defs>
					<rect id="SVGID_5_" x="-218.9" y="-28.3" width="720" height="432"/>
				</defs>
				<clipPath id="SVGID_6_">
					<use xlink:href="#SVGID_5_"  style="overflow:visible;"/>
				</clipPath>
				<rect x="183.1" y="371.7" class="st3" width="10" height="10"/>
			</g>
		</g>
	</g>
	<g>
		<path class="st1" d="M42.7,373h1.1v7h-1.1v-3.1h-3.3v3.1h-1.1v-7h1.1v3h3.3V373z"/>
		<path class="st1" d="M49.2,374.4h1.1v5.5h-1.1V379c-0.4,0.6-0.9,1-1.8,1c-0.6,0-1.1-0.2-1.5-0.6s-0.6-1-0.6-1.7v-3.3h1.1v3.1
			c0,0.5,0.1,0.9,0.4,1.1c0.2,0.3,0.6,0.4,1,0.4s0.8-0.1,1-0.4s0.4-0.6,0.4-1.1C49.2,377.5,49.2,374.4,49.2,374.4z"/>
		<path class="st1" d="M53.1,373c0,0.2-0.1,0.4-0.2,0.5s-0.3,0.2-0.5,0.2s-0.4-0.1-0.5-0.2s-0.2-0.3-0.2-0.5s0.1-0.4,0.2-0.5
			s0.3-0.2,0.5-0.2s0.4,0.1,0.5,0.2S53.1,372.8,53.1,373z M51.8,380v-5.6h1.1v5.5h-1.1V380z"/>
		<path class="st1" d="M54.8,379.2c-0.5-0.5-0.8-1.2-0.8-2.1c0-0.8,0.2-1.5,0.7-2s1.1-0.8,1.9-0.8c0.4,0,0.8,0.1,1.1,0.3
			c0.3,0.2,0.6,0.5,0.8,0.8v-2.9h1.1v7.4h-1.1v-1c-0.2,0.3-0.4,0.6-0.8,0.8S57,380,56.6,380C55.9,380,55.3,379.8,54.8,379.2z
			 M58.1,378.5c0.3-0.3,0.5-0.8,0.5-1.4s-0.2-1-0.5-1.3s-0.7-0.5-1.2-0.5s-0.8,0.2-1.2,0.5c-0.3,0.3-0.5,0.8-0.5,1.3
			c0,0.6,0.2,1,0.5,1.4c0.3,0.3,0.7,0.5,1.2,0.5C57.4,379.1,57.8,378.9,58.1,378.5z"/>
		<path class="st1" d="M62.5,373c0,0.2-0.1,0.4-0.2,0.5s-0.3,0.2-0.5,0.2s-0.4-0.1-0.5-0.2s-0.2-0.3-0.2-0.5s0.1-0.4,0.2-0.5
			s0.3-0.2,0.5-0.2s0.4,0.1,0.5,0.2C62.5,372.6,62.5,372.8,62.5,373z M61.2,380v-5.6h1.1v5.5h-1.1V380z"/>
		<path class="st1" d="M64.2,379.2c-0.5-0.5-0.8-1.2-0.8-2.1c0-0.8,0.2-1.5,0.7-2s1.1-0.8,1.9-0.8c0.4,0,0.8,0.1,1.1,0.3
			c0.3,0.2,0.6,0.5,0.8,0.8v-1H69v5.6c0,0.8-0.2,1.4-0.7,1.9s-1.1,0.7-1.9,0.7s-1.4-0.2-1.9-0.5s-0.8-0.8-0.8-1.4h1.1
			c0.1,0.3,0.3,0.5,0.6,0.7c0.3,0.2,0.6,0.3,1.1,0.3c0.4,0,0.8-0.1,1.1-0.4c0.3-0.3,0.4-0.7,0.4-1.2V379c-0.2,0.3-0.4,0.6-0.8,0.8
			s-0.7,0.3-1.1,0.3C65.4,380,64.7,379.8,64.2,379.2z M67.5,378.5c0.3-0.3,0.5-0.8,0.5-1.4s-0.2-1-0.5-1.3s-0.7-0.5-1.2-0.5
			s-0.8,0.2-1.2,0.5c-0.3,0.3-0.5,0.8-0.5,1.3c0,0.6,0.2,1,0.5,1.4c0.3,0.3,0.7,0.5,1.2,0.5C66.8,379.1,67.2,378.9,67.5,378.5z"/>
		<path class="st1" d="M73,380c-0.8,0-1.4-0.3-1.9-0.8s-0.8-1.2-0.8-2.1s0.3-1.5,0.8-2.1c0.5-0.5,1.2-0.8,2-0.8s1.5,0.2,2,0.7
			s0.8,1.1,0.8,1.9c0,0.2,0,0.4,0,0.5h-4.2c0,0.5,0.2,0.8,0.5,1.1c0.3,0.3,0.6,0.4,1.1,0.4c0.6,0,1.1-0.3,1.3-0.8h1.2
			c-0.2,0.5-0.5,0.9-0.9,1.2C74.2,379.9,73.6,380,73,380z M74.1,375.7c-0.3-0.3-0.7-0.4-1.1-0.4s-0.8,0.1-1.1,0.4
			c-0.3,0.3-0.4,0.6-0.5,1.1h3.1C74.5,376.3,74.4,376,74.1,375.7z"/>
		<path class="st1" d="M79.2,374.4h1.2l1.6,4.5l1.6-4.5h1.2l-2.1,5.5h-1.4L79.2,374.4z"/>
		<path class="st1" d="M88,380c-0.8,0-1.5-0.3-2-0.8s-0.8-1.2-0.8-2.1c0-0.8,0.3-1.5,0.8-2.1s1.2-0.8,2-0.8s1.5,0.3,2,0.8
			s0.8,1.2,0.8,2.1s-0.3,1.5-0.8,2.1C89.5,379.8,88.8,380,88,380z M89.2,378.6c0.3-0.3,0.5-0.8,0.5-1.4s-0.2-1.1-0.5-1.4
			s-0.7-0.5-1.2-0.5s-0.8,0.2-1.2,0.5c-0.3,0.3-0.5,0.8-0.5,1.4s0.2,1.1,0.5,1.4s0.7,0.5,1.1,0.5S88.8,378.9,89.2,378.6z"/>
		<path class="st1" d="M94.4,380c-0.8,0-1.5-0.3-2-0.8s-0.8-1.2-0.8-2.1c0-0.8,0.3-1.5,0.8-2.1s1.2-0.8,2-0.8s1.5,0.3,2,0.8
			s0.8,1.2,0.8,2.1s-0.3,1.5-0.8,2.1C95.8,379.8,95.2,380,94.4,380z M95.5,378.6c0.3-0.3,0.5-0.8,0.5-1.4s-0.2-1.1-0.5-1.4
			s-0.7-0.5-1.2-0.5s-0.8,0.2-1.2,0.5c-0.3,0.3-0.5,0.8-0.5,1.4s0.2,1.1,0.5,1.4s0.7,0.5,1.1,0.5S95.2,378.9,95.5,378.6z"/>
		<path class="st1" d="M99.5,374.4v1c0.4-0.7,0.9-1,1.6-1v1.2h-0.3c-0.4,0-0.8,0.1-1,0.3s-0.3,0.6-0.3,1.2v2.9h-1.1v-5.6H99.5z"/>
		<path class="st1" d="M103.3,374.4v1c0.4-0.7,0.9-1,1.6-1v1.2h-0.3c-0.4,0-0.8,0.1-1,0.3s-0.3,0.6-0.3,1.2v2.9h-1.1v-5.6H103.3z"/>
		<path class="st1" d="M106.4,379.2c-0.5-0.5-0.8-1.2-0.8-2.1c0-0.8,0.2-1.5,0.7-2s1.1-0.8,1.9-0.8c0.4,0,0.8,0.1,1.1,0.3
			c0.3,0.2,0.6,0.5,0.8,0.8v-1h1.1v5.5h-1.1v-1c-0.2,0.3-0.4,0.6-0.8,0.8s-0.7,0.3-1.1,0.3C107.5,380,106.9,379.8,106.4,379.2z
			 M109.7,378.5c0.3-0.3,0.5-0.8,0.5-1.4s-0.2-1-0.5-1.3s-0.7-0.5-1.2-0.5s-0.8,0.2-1.2,0.5c-0.3,0.3-0.5,0.8-0.5,1.3
			c0,0.6,0.2,1,0.5,1.4c0.3,0.3,0.7,0.5,1.2,0.5C108.9,379.1,109.3,378.9,109.7,378.5z"/>
		<path class="st1" d="M113.2,379.2c-0.5-0.5-0.8-1.2-0.8-2.1c0-0.8,0.2-1.5,0.7-2s1.1-0.8,1.9-0.8c0.4,0,0.8,0.1,1.1,0.3
			c0.3,0.2,0.6,0.5,0.8,0.8v-1h1.1v5.5h-1.1v-1c-0.2,0.3-0.4,0.6-0.8,0.8s-0.7,0.3-1.1,0.3C114.3,380,113.7,379.8,113.2,379.2z
			 M116.4,378.5c0.3-0.3,0.5-0.8,0.5-1.4s-0.2-1-0.5-1.3s-0.7-0.5-1.2-0.5s-0.8,0.2-1.2,0.5c-0.3,0.3-0.5,0.8-0.5,1.3
			c0,0.6,0.2,1,0.5,1.4c0.3,0.3,0.7,0.5,1.2,0.5C115.7,379.1,116.1,378.9,116.4,378.5z"/>
		<path class="st1" d="M120,379.2c-0.5-0.5-0.8-1.2-0.8-2.1c0-0.8,0.2-1.5,0.7-2s1.1-0.8,1.9-0.8c0.4,0,0.8,0.1,1.1,0.3
			c0.3,0.2,0.6,0.5,0.8,0.8v-2.9h1.1v7.4h-1.1v-1c-0.2,0.3-0.4,0.6-0.8,0.8s-0.7,0.3-1.1,0.3C121.1,380,120.5,379.8,120,379.2z
			 M123.2,378.5c0.3-0.3,0.5-0.8,0.5-1.4s-0.2-1-0.5-1.3s-0.7-0.5-1.2-0.5s-0.8,0.2-1.2,0.5c-0.3,0.3-0.5,0.8-0.5,1.3
			c0,0.6,0.2,1,0.5,1.4c0.3,0.3,0.7,0.5,1.2,0.5C122.5,379.1,122.9,378.9,123.2,378.5z"/>
	</g>
	<g>
		<path class="st1" d="M202.1,380l-2.6-7h1.2l2,5.8l2.1-5.8h1.2l-2.6,7H202.1z"/>
		<path class="st1" d="M209.3,380c-0.8,0-1.4-0.3-1.9-0.8s-0.8-1.2-0.8-2.1s0.3-1.5,0.8-2.1c0.5-0.5,1.2-0.8,2-0.8s1.5,0.2,2,0.7
			s0.8,1.1,0.8,1.9c0,0.2,0,0.4,0,0.5H208c0,0.5,0.2,0.8,0.5,1.1c0.3,0.3,0.6,0.4,1.1,0.4c0.6,0,1.1-0.3,1.3-0.8h1.2
			c-0.2,0.5-0.5,0.9-0.9,1.2C210.5,379.9,209.9,380,209.3,380z M210.4,375.7c-0.3-0.3-0.7-0.4-1.1-0.4s-0.8,0.1-1.1,0.4
			s-0.4,0.6-0.5,1.1h3.1C210.8,376.3,210.7,376,210.4,375.7z"/>
		<path class="st1" d="M214.3,374.4v1c0.4-0.7,0.9-1,1.7-1v1.2h-0.3c-0.4,0-0.8,0.1-1,0.3c-0.2,0.2-0.3,0.6-0.3,1.2v2.9h-1.3v-5.6
			H214.3z"/>
		<path class="st1" d="M220,374.4c0.7,0,1.4,0.3,1.9,0.8s0.7,1.2,0.7,2s-0.2,1.5-0.7,2.1c-0.5,0.5-1.1,0.8-1.8,0.8
			c-0.4,0-0.8-0.1-1.1-0.3c-0.3-0.2-0.6-0.5-0.8-0.8v1h-1.1v-7.4h1.1v2.9c0.2-0.3,0.4-0.6,0.8-0.8S219.6,374.4,220,374.4z
			 M221,378.5c0.3-0.3,0.5-0.8,0.5-1.4s-0.2-1-0.5-1.3s-0.7-0.5-1.2-0.5s-0.8,0.2-1.2,0.5c-0.3,0.3-0.5,0.8-0.5,1.3s0.2,1,0.5,1.4
			c0.3,0.3,0.7,0.5,1.2,0.5S220.6,378.9,221,378.5z"/>
		<path class="st1" d="M224.9,374.4v1c0.4-0.7,0.9-1,1.6-1v1.2h-0.3c-0.4,0-0.8,0.1-1,0.3c-0.2,0.2-0.3,0.6-0.3,1.2v2.9h-1.1v-5.6
			H224.9z"/>
		<path class="st1" d="M231.4,374.4h1.1v5.5h-1.1V379c-0.4,0.6-0.9,1-1.8,1c-0.6,0-1.1-0.2-1.5-0.6s-0.6-1-0.6-1.7v-3.3h1.1v3.1
			c0,0.5,0.1,0.9,0.4,1.1c0.2,0.3,0.6,0.4,1,0.4s0.8-0.1,1-0.4s0.4-0.6,0.4-1.1L231.4,374.4L231.4,374.4z"/>
		<path class="st1" d="M235.4,373c0,0.2-0.1,0.4-0.2,0.5c-0.1,0.1-0.3,0.2-0.5,0.2s-0.4-0.1-0.5-0.2s-0.2-0.3-0.2-0.5
			s0.1-0.4,0.2-0.5c0.1-0.1,0.3-0.2,0.5-0.2s0.4,0.1,0.5,0.2S235.4,372.8,235.4,373z M234.1,380v-5.6h1.1v5.5h-1.1V380z"/>
		<path class="st1" d="M237.9,380h-1.1v-7.4h1.1v4.3l2-2.4h1.6l-2.5,2.8l2.5,2.8H240l-2-2.4L237.9,380L237.9,380z"/>
		<path class="st1" d="M244.9,375.4h-1.3v3.1c0,0.2,0,0.4,0.1,0.4s0.3,0.1,0.5,0.1h0.7v1H244c-1.1,0-1.6-0.5-1.6-1.5v-3.1h-0.7v-1
			h0.7V373h1.1v1.4h1.3L244.9,375.4L244.9,375.4z"/>
		<path class="st1" d="M248.3,380c-0.8,0-1.5-0.3-2-0.8s-0.8-1.2-0.8-2.1s0.3-1.5,0.8-2.1c0.5-0.5,1.2-0.8,2-0.8s1.5,0.2,2,0.7
			s0.8,1.1,0.8,1.9c0,0.2,0,0.4,0,0.5h-4.2c0,0.5,0.2,0.8,0.5,1.1c0.3,0.3,0.6,0.4,1.1,0.4c0.6,0,1.1-0.3,1.3-0.8h1.2
			c-0.2,0.5-0.5,0.9-0.9,1.2S248.9,380,248.3,380z M249.4,375.7c-0.3-0.3-0.7-0.4-1.1-0.4s-0.8,0.1-1.1,0.4s-0.4,0.6-0.5,1.1h3.1
			C249.8,376.3,249.7,376,249.4,375.7z"/>
		<path class="st1" d="M254.5,374.4h1.2l1.6,4.5l1.6-4.5h1.2l-2.1,5.5h-1.4L254.5,374.4z"/>
		<path class="st1" d="M263.3,380c-0.8,0-1.5-0.3-2-0.8s-0.8-1.2-0.8-2.1c0-0.8,0.3-1.5,0.8-2.1c0.5-0.5,1.2-0.8,2-0.8
			s1.5,0.3,2,0.8s0.8,1.2,0.8,2.1s-0.3,1.5-0.8,2.1C264.8,379.8,264.1,380,263.3,380z M264.5,378.6c0.3-0.3,0.5-0.8,0.5-1.4
			s-0.2-1.1-0.5-1.4s-0.7-0.5-1.2-0.5s-0.8,0.2-1.2,0.5c-0.3,0.3-0.5,0.8-0.5,1.4s0.2,1.1,0.5,1.4s0.7,0.5,1.1,0.5
			C263.8,379.1,264.2,378.9,264.5,378.6z"/>
		<path class="st1" d="M269.7,380c-0.8,0-1.5-0.3-2-0.8s-0.8-1.2-0.8-2.1c0-0.8,0.3-1.5,0.8-2.1c0.5-0.5,1.2-0.8,2-0.8
			s1.5,0.3,2,0.8s0.8,1.2,0.8,2.1s-0.3,1.5-0.8,2.1C271.2,379.8,270.5,380,269.7,380z M270.9,378.6c0.3-0.3,0.5-0.8,0.5-1.4
			s-0.2-1.1-0.5-1.4s-0.7-0.5-1.2-0.5s-0.8,0.2-1.2,0.5c-0.3,0.3-0.5,0.8-0.5,1.4s0.2,1.1,0.5,1.4s0.7,0.5,1.1,0.5
			C270.1,379.1,270.5,378.9,270.9,378.6z"/>
		<path class="st1" d="M274.8,374.4v1c0.4-0.7,0.9-1,1.6-1v1.2h-0.3c-0.4,0-0.8,0.1-1,0.3c-0.2,0.2-0.3,0.6-0.3,1.2v2.9h-1.1v-5.6
			H274.8z"/>
		<path class="st1" d="M278.6,374.4v1c0.4-0.7,0.9-1,1.6-1v1.2h-0.3c-0.4,0-0.8,0.1-1,0.3c-0.2,0.2-0.3,0.6-0.3,1.2v2.9h-1.1v-5.6
			H278.6z"/>
		<path class="st1" d="M281.7,379.2c-0.5-0.5-0.8-1.2-0.8-2.1c0-0.8,0.2-1.5,0.7-2s1.1-0.8,1.9-0.8c0.4,0,0.8,0.1,1.1,0.3
			s0.6,0.5,0.8,0.8v-1h1.2v5.5h-1.2v-1c-0.2,0.3-0.4,0.6-0.8,0.8c-0.3,0.2-0.7,0.3-1.1,0.3C282.8,380,282.2,379.8,281.7,379.2z
			 M285,378.5c0.3-0.3,0.5-0.8,0.5-1.4s-0.2-1-0.5-1.3s-0.7-0.5-1.2-0.5s-0.8,0.2-1.2,0.5c-0.3,0.3-0.5,0.8-0.5,1.3
			c0,0.6,0.2,1,0.5,1.4c0.3,0.3,0.7,0.5,1.2,0.5S284.6,378.9,285,378.5z"/>
		<path class="st1" d="M288.5,379.2c-0.5-0.5-0.8-1.2-0.8-2.1c0-0.8,0.2-1.5,0.7-2s1.1-0.8,1.9-0.8c0.4,0,0.8,0.1,1.1,0.3
			c0.3,0.2,0.6,0.5,0.8,0.8v-1h1.1v5.5h-1.1v-1c-0.2,0.3-0.4,0.6-0.8,0.8c-0.3,0.2-0.7,0.3-1.1,0.3C289.6,380,289,379.8,288.5,379.2
			z M291.8,378.5c0.3-0.3,0.5-0.8,0.5-1.4s-0.2-1-0.5-1.3s-0.7-0.5-1.2-0.5s-0.8,0.2-1.2,0.5c-0.3,0.3-0.5,0.8-0.5,1.3
			c0,0.6,0.2,1,0.5,1.4c0.3,0.3,0.7,0.5,1.2,0.5C291,379.1,291.4,378.9,291.8,378.5z"/>
		<path class="st1" d="M295.3,379.2c-0.5-0.5-0.8-1.2-0.8-2.1c0-0.8,0.2-1.5,0.7-2s1.1-0.8,1.9-0.8c0.4,0,0.8,0.1,1.1,0.3
			s0.6,0.5,0.8,0.8v-2.9h1.2v7.4H299v-1c-0.2,0.3-0.4,0.6-0.8,0.8c-0.3,0.2-0.7,0.3-1.1,0.3C296.4,380,295.8,379.8,295.3,379.2z
			 M298.5,378.5c0.3-0.3,0.5-0.8,0.5-1.4s-0.2-1-0.5-1.3s-0.7-0.5-1.2-0.5s-0.8,0.2-1.2,0.5c-0.3,0.3-0.5,0.8-0.5,1.3
			c0,0.6,0.2,1,0.5,1.4c0.3,0.3,0.7,0.5,1.2,0.5S298.2,378.9,298.5,378.5z"/>
	</g>
</g>
<g id="curr">
	<path class="st4" d="M141.1,68.6c68.3,0,123.7,55.4,123.7,123.7s-55.4,123.8-123.7,123.8S17.4,260.7,17.4,192.4
		c0-29.3,10.4-57.7,29.4-80.1L94,152.4c-22.1,26-18.9,65.1,7.1,87.2s65.1,18.9,87.2-7.1s18.9-65.1-7.1-87.2
		c-11.2-9.5-25.4-14.7-40.1-14.7L141.1,68.6L141.1,68.6z"/>
</g>
<g id="curr-per">
	<g>
		<path d="M199,253.8c0-1,0.6-1.7,1.5-2.1l0,0c-0.9-0.4-1.2-1.1-1.2-1.8c0-1.2,1-2.1,2.4-2.1c1.5,0,2.3,0.9,2.3,1.9
			c0,0.7-0.3,1.4-1.3,1.8l0,0c1,0.4,1.6,1.1,1.6,2c0,1.4-1.2,2.3-2.7,2.3C200,255.9,199,254.9,199,253.8z M203.2,253.7
			c0-0.9-0.7-1.4-1.7-1.7c-0.9,0.3-1.4,0.9-1.4,1.6c0,0.8,0.6,1.5,1.6,1.5C202.6,255.1,203.2,254.5,203.2,253.7z M200.3,249.8
			c0,0.8,0.6,1.2,1.5,1.4c0.7-0.2,1.2-0.7,1.2-1.4c0-0.6-0.4-1.3-1.3-1.3C200.8,248.6,200.3,249.2,200.3,249.8z"/>
		<path d="M209.7,248.7c-0.2,0-0.5,0-0.8,0c-1.7,0.3-2.5,1.5-2.7,2.8l0,0c0.4-0.5,1-0.9,1.9-0.9c1.4,0,2.4,1,2.4,2.5
			c0,1.4-1,2.7-2.6,2.7c-1.7,0-2.8-1.3-2.8-3.3c0-1.5,0.6-2.7,1.3-3.5c0.6-0.6,1.5-1,2.5-1.2c0.3,0,0.6-0.1,0.8-0.1L209.7,248.7
			L209.7,248.7z M209.4,253.2c0-1.1-0.6-1.8-1.6-1.8c-0.6,0-1.2,0.4-1.5,1c-0.1,0.1-0.1,0.3-0.1,0.5c0,1.3,0.6,2.2,1.7,2.2
			C208.8,255.1,209.4,254.3,209.4,253.2z"/>
		<path d="M214.9,250.2c0,1.6-0.9,2.5-1.9,2.5s-1.8-0.8-1.8-2.4s0.9-2.4,1.9-2.4C214.2,247.8,214.9,248.7,214.9,250.2z M212.1,250.2
			c0,1,0.3,1.8,1,1.8s1-0.7,1-1.8c0-0.9-0.3-1.7-1-1.7C212.4,248.5,212.1,249.3,212.1,250.2z M213,255.9l4.6-8.1h0.7l-4.6,8.1H213z
			 M220,253.4c0,1.6-0.9,2.5-1.9,2.5s-1.8-0.8-1.8-2.3c0-1.6,0.9-2.4,1.9-2.4C219.3,251.1,220,251.9,220,253.4z M217.2,253.5
			c0,1,0.4,1.8,1,1.8c0.7,0,1-0.7,1-1.8c0-0.9-0.3-1.7-1-1.7C217.5,251.7,217.2,252.5,217.2,253.5z"/>
	</g>
</g>
</svg>
